<svg width="85" height="24" viewBox="0 0 85 24" fill="none" xmlns="http://www.w3.org/2000/svg">
<path d="M28.6394 15.2727V5.9389H27.1089V15.2727H28.6394Z" fill="#FEFAEE"/>
<path d="M29.5762 12.1615C29.5762 14.0684 30.8558 15.4233 32.8004 15.4233C34.7449 15.4233 36.0245 14.0684 36.0245 12.1615C36.0245 10.2546 34.7449 8.89966 32.8004 8.89966C30.8558 8.89966 29.5762 10.2546 29.5762 12.1615ZM31.1193 12.1615C31.1193 11.0449 31.7842 10.2671 32.8004 10.2671C33.8165 10.2671 34.4814 11.0449 34.4814 12.1615C34.4814 13.2655 33.8165 14.0558 32.8004 14.0558C31.7842 14.0558 31.1193 13.2655 31.1193 12.1615Z" fill="#FEFAEE"/>
<path d="M36.5393 12.036C36.5393 13.8426 37.706 15.1473 39.4499 15.1473C40.3531 15.1473 41.1309 14.7835 41.5199 14.1813V15.2351C41.5199 16.2513 40.88 16.9288 39.8137 16.9288C38.8602 16.9288 38.2078 16.4646 38.12 15.6491H36.5769C36.7777 17.2675 38.0197 18.3213 39.7258 18.3213C41.7331 18.3213 43.0128 17.004 43.0128 14.9591V9.0753H41.6578L41.57 9.91585C41.1937 9.26348 40.4158 8.87457 39.5 8.87457C37.7311 8.87457 36.5393 10.2169 36.5393 12.036ZM38.0949 11.9984C38.0949 10.9697 38.7473 10.2169 39.7133 10.2169C40.7671 10.2169 41.4697 10.9822 41.4697 11.9984C41.4697 13.0271 40.7671 13.8175 39.7133 13.8175C38.7599 13.8175 38.0949 13.0397 38.0949 11.9984Z" fill="#FEFAEE"/>
<path d="M43.7703 12.1615C43.7703 14.0684 45.0499 15.4233 46.9944 15.4233C48.939 15.4233 50.2186 14.0684 50.2186 12.1615C50.2186 10.2546 48.939 8.89966 46.9944 8.89966C45.0499 8.89966 43.7703 10.2546 43.7703 12.1615ZM45.3134 12.1615C45.3134 11.0449 45.9783 10.2671 46.9944 10.2671C48.0106 10.2671 48.6755 11.0449 48.6755 12.1615C48.6755 13.2655 48.0106 14.0558 46.9944 14.0558C45.9783 14.0558 45.3134 13.2655 45.3134 12.1615Z" fill="#FEFAEE"/>
<path d="M51.875 7.80817C52.3768 7.80817 52.7908 7.40671 52.7908 6.89235C52.7908 6.39053 52.3768 5.98907 51.875 5.98907C51.3606 5.98907 50.9717 6.39053 50.9717 6.89235C50.9717 7.40671 51.3606 7.80817 51.875 7.80817ZM51.1097 15.2727H52.6402V9.07526H51.1097V15.2727Z" fill="#FEFAEE"/>
<path d="M53.9812 18.1456H55.4742V14.4196C55.8631 15.0594 56.7037 15.4358 57.632 15.4358C59.4637 15.4358 60.5551 14.0307 60.53 12.0987C60.4924 10.1542 59.3759 8.88708 57.6195 8.88708C56.6786 8.88708 55.8255 9.30109 55.4491 10.0162L55.3613 9.07527H53.9812V18.1456ZM55.5369 12.174C55.5369 11.0574 56.2144 10.2796 57.2808 10.2796C58.3471 10.2796 58.9869 11.07 58.9869 12.174C58.9869 13.278 58.3471 14.0558 57.2808 14.0558C56.2144 14.0558 55.5369 13.2905 55.5369 12.174Z" fill="#FEFAEE"/>
<path d="M60.9182 13.416C60.9684 14.6454 61.9218 15.4358 63.4022 15.4358C64.8575 15.4358 65.8486 14.658 65.8486 13.4536C65.8486 12.5629 65.2966 11.9607 64.2804 11.7098L63.1889 11.4464C62.7248 11.3209 62.4111 11.1578 62.4111 10.7564C62.4111 10.3298 62.7499 10.0287 63.3019 10.0287C63.8789 10.0287 64.2553 10.3549 64.2553 10.8944H65.6479C65.5977 9.6649 64.6819 8.88708 63.3395 8.88708C62.0097 8.88708 61.0186 9.6649 61.0186 10.8442C61.0186 11.6471 61.4828 12.312 62.6746 12.6256L63.7535 12.9016C64.1549 13.0145 64.4059 13.2027 64.4059 13.554C64.4059 14.0433 63.9417 14.2691 63.3771 14.2691C62.6997 14.2691 62.3108 13.9554 62.3108 13.416H60.9182Z" fill="#FEFAEE"/>
<path d="M69.0239 15.4358C69.8644 15.4358 70.6674 15.0469 71.0312 14.4698L71.1315 15.2727H72.5617V9.07526H71.0312V12.3245C71.0312 13.4411 70.6046 14.0683 69.601 14.0683C68.8232 14.0683 68.2837 13.692 68.2837 12.4123V9.07526H66.7532V12.9518C66.7532 14.4322 67.5561 15.4358 69.0239 15.4358Z" fill="#FEFAEE"/>
<path d="M75.4427 15.2727V11.7098C75.4427 10.7062 76.0323 10.2294 76.7599 10.2294C77.4876 10.2294 77.9643 10.6936 77.9643 11.5718V15.2727H79.4572V11.7224C79.4572 10.7062 80.0343 10.2294 80.7619 10.2294C81.5021 10.2294 81.9788 10.6936 81.9788 11.5718V15.2727H83.4592V11.2205C83.4592 9.79036 82.6688 8.88708 81.1634 8.88708C80.2225 8.88708 79.4823 9.33872 79.1812 10.0664C78.8425 9.33872 78.165 8.88708 77.1363 8.88708C76.4087 8.88708 75.7563 9.22581 75.3925 9.77781L75.3172 9.07527H73.9121V15.2727H75.4427Z" fill="#FEFAEE"/>
<path d="M71.7733 20.8113C72.0013 20.8113 72.1993 20.6193 72.1993 20.3913C72.1993 20.1573 72.0013 19.9653 71.7733 19.9653C71.5393 19.9653 71.3413 20.1573 71.3413 20.3913C71.3413 20.6193 71.5393 20.8113 71.7733 20.8113Z" fill="#FEFAEE"/>
<path d="M72.6396 19.2633C72.6396 20.1813 73.2036 20.7993 74.0256 20.7993C74.7336 20.7993 75.2736 20.3733 75.3876 19.7373H74.8477C74.7457 20.0913 74.4336 20.3013 74.0616 20.3013C73.5336 20.3013 73.1976 19.8933 73.1976 19.2573C73.1976 18.6093 73.5516 18.2133 74.0736 18.2133C74.4336 18.2133 74.7456 18.4053 74.8416 18.7833H75.3816C75.2856 18.1413 74.7816 17.7093 74.0796 17.7093C73.2276 17.7093 72.6396 18.3393 72.6396 19.2633Z" fill="#FEFAEE"/>
<path d="M75.6003 19.2573C75.6003 20.1393 76.2003 20.7993 77.1003 20.7993C78.0003 20.7993 78.6003 20.1393 78.6003 19.2573C78.6003 18.3753 78.0003 17.7153 77.1003 17.7153C76.2003 17.7153 75.6003 18.3753 75.6003 19.2573ZM76.1703 19.2573C76.1703 18.6573 76.5363 18.2193 77.1003 18.2193C77.6643 18.2193 78.0303 18.6573 78.0303 19.2573C78.0303 19.8573 77.6643 20.2953 77.1003 20.2953C76.5363 20.2953 76.1703 19.8573 76.1703 19.2573Z" fill="#FEFAEE"/>
<path d="M79.646 20.7333V18.9693C79.646 18.5073 79.934 18.2073 80.354 18.2073C80.756 18.2073 81.008 18.4653 81.008 18.9273V20.7333H81.56V18.9753C81.56 18.5073 81.842 18.2073 82.268 18.2073C82.664 18.2073 82.916 18.4653 82.916 18.9273V20.7333H83.462V18.8073C83.462 18.1293 83.066 17.7153 82.394 17.7153C81.938 17.7153 81.584 17.9373 81.44 18.2973C81.29 17.9373 80.96 17.7153 80.48 17.7153C80.114 17.7153 79.79 17.8833 79.628 18.1713L79.586 17.7993H79.082V20.7333H79.646Z" fill="#FEFAEE"/>
<path fill-rule="evenodd" clip-rule="evenodd" d="M1.67261 12.2374L1.67366 12.1281L1.67583 12.0187L1.67913 11.9094L1.68354 11.8L1.68908 11.6906L1.69574 11.5813L1.70353 11.472L1.71244 11.3627L1.72247 11.2534L1.73363 11.1442L1.74592 11.0351L1.75932 10.926L1.77385 10.817L1.7895 10.7081L1.80628 10.5994L1.82417 10.4908L1.84319 10.3822L1.86333 10.2739L1.88458 10.1657L1.90696 10.0576L1.93045 9.94972L1.95505 9.84205L1.98077 9.73459L2.0076 9.6273L2.03554 9.52028L2.06459 9.41343L2.09475 9.30684L2.12601 9.20054L2.15837 9.0945L2.19183 8.98874L2.22639 8.88324L2.26204 8.77803L2.29879 8.67314L2.33662 8.56857L2.37555 8.46434L2.41555 8.36043L2.45664 8.2569L2.4988 8.1537L2.54204 8.05094L2.58635 7.9485L2.63172 7.84644L2.67816 7.74483L2.72566 7.64365L2.77422 7.54285L2.82383 7.44248L2.87448 7.34261L2.92618 7.24317L2.97892 7.14417L3.03269 7.04572L3.08749 6.9477L3.14333 6.85017L3.20017 6.75319L3.25804 6.6567L3.31692 6.56075L3.3768 6.46535L3.43769 6.3705L3.49957 6.27625L3.56244 6.18248L3.6263 6.08937L3.69114 5.99681L3.75695 5.90484L3.82372 5.81354L3.89146 5.72277L3.96016 5.63272L4.02981 5.54326L4.10039 5.45443L4.17192 5.36628L4.24438 5.27881L4.31776 5.192L4.39206 5.10588L4.46727 5.02046L4.54338 4.93574L4.6204 4.85174L4.6983 4.76846L4.77709 4.68591L4.85675 4.6041L4.93728 4.52304L5.01868 4.44274L5.10093 4.36321L5.18402 4.28445L5.26795 4.20648L5.35272 4.1293L5.43831 4.05292L5.52471 3.97736L5.61192 3.9026L5.69993 3.82868L5.78873 3.7556L5.87832 3.68335L5.96868 3.61196L6.05981 3.54142L6.15166 3.47175L6.24433 3.40295L6.33772 3.33504L6.43181 3.26802L6.52661 3.2019L6.62217 3.13668L6.71839 3.07237L6.81532 3.00898L6.91295 2.94651L7.0113 2.88498L7.11024 2.8244L7.2099 2.76475L7.31015 2.70607L7.41106 2.64834L7.51263 2.59158L7.61479 2.5358L7.71755 2.48099L7.82092 2.42717L7.92488 2.37435L8.02944 2.32252L8.13455 2.2717L8.24026 2.22189L8.34646 2.1731L8.45326 2.12534L8.56055 2.0786L8.66839 2.03289L8.77672 1.98823L8.88553 1.94461L8.99484 1.90204L9.10464 1.86053L9.21488 1.82007L9.32561 1.78069L9.43677 1.74237L9.54837 1.70513L9.66035 1.66897L9.77277 1.63389L9.88562 1.5999L9.99886 1.56701L10.1124 1.53522L10.2264 1.50452L10.3408 1.47493L10.4554 1.44645L10.5704 1.41909L10.6858 1.39284L10.8014 1.36772L10.9173 1.34371L11.0335 1.32083L11.15 1.29909L11.2668 1.27848L11.3839 1.25901L11.5012 1.24067L11.6186 1.22348L11.7364 1.20744L11.8543 1.19254L11.9724 1.1788L12.0907 1.1662L12.2092 1.15477L12.3278 1.14448L12.4466 1.13536L12.5656 1.1274L13.205 1.09088L13.2415 4.17197L13.2624 4.17173L13.3507 4.17161L13.439 4.17235L13.5274 4.17396L13.6158 4.17644L13.7041 4.17979L13.7926 4.184L13.881 4.18909L13.9694 4.19505L14.0578 4.20188L14.1462 4.20958L14.2345 4.21815L14.3228 4.2276L14.411 4.23791L14.4992 4.2491L14.5873 4.26116L14.6753 4.27409L14.7632 4.28789L14.8511 4.30257L14.9388 4.31811L15.0265 4.33452L15.114 4.3518L15.2013 4.36995L15.2886 4.38897L15.3756 4.40885L15.4625 4.42959L15.5493 4.4512L15.6359 4.47368L15.7222 4.49702L15.8084 4.52121L15.8944 4.54627L15.9802 4.57217L16.0657 4.59894L16.151 4.62656L16.2361 4.65503L16.3209 4.68435L16.4054 4.71452L16.4898 4.74553L16.5738 4.77739L16.6575 4.81008L16.741 4.84362L16.8241 4.878L16.9069 4.9132L16.9894 4.94924L17.0716 4.98611L17.1534 5.0238L17.2349 5.06231L17.3161 5.10164L17.3969 5.14179L17.4773 5.18276L17.5573 5.22453L17.6369 5.26711L17.7162 5.31049L17.795 5.35467L17.8734 5.39965L17.9514 5.44542L18.029 5.49199L18.1061 5.53934L18.1828 5.58745L18.259 5.63637L18.3348 5.68601L18.41 5.73646L18.4849 5.78768L18.5592 5.83961L18.633 5.89235L18.7063 5.94581L18.7791 6.00003L18.8514 6.05501L18.9232 6.1107L18.9944 6.16715L19.065 6.22426L19.1352 6.28214L19.2047 6.34077L19.2737 6.40006L19.3422 6.46006L19.41 6.52077L19.4772 6.58219L19.5439 6.64432L19.6099 6.7071L19.6754 6.77054L19.7402 6.83468L19.8044 6.89948L19.8679 6.96499L19.9309 7.0311L19.9931 7.09786L20.0548 7.16528L20.1157 7.23335L20.176 7.30203L20.2356 7.37135L20.2945 7.44128L20.3527 7.51181L20.4103 7.58299L20.4671 7.65472L20.5232 7.72705L20.5787 7.79997L20.6334 7.8735L20.6873 7.94757L20.7406 8.02225L20.793 8.09746L20.8448 8.17317L20.8958 8.24948L20.946 8.32634L20.9955 8.40374L21.0442 8.48163L21.0921 8.56001L21.1392 8.63894L21.1856 8.71835L21.2311 8.79826L21.2759 8.87866L21.3199 8.95955L21.363 9.04088L21.4054 9.1227L21.4469 9.20495L21.4876 9.28764L21.5274 9.37083L21.5665 9.45439L21.6047 9.53839L21.642 9.62283L21.6785 9.70764L21.7141 9.7929L21.7489 9.87848L21.7829 9.9645L21.8159 10.0508L21.8481 10.1376L21.8794 10.2247L21.9098 10.3122L21.9394 10.3999L21.9681 10.4881L21.9959 10.5765L22.0228 10.6652L22.0487 10.7543L22.0738 10.8437L22.098 10.9333L22.1213 11.0233L22.1436 11.1134L22.1651 11.2039L22.1856 11.2946L22.2052 11.3856L22.2239 11.4768L22.2416 11.5682L22.2584 11.6599L22.2743 11.7517L22.2893 11.8438L22.3033 11.936L22.3164 12.0284L22.3285 12.121L22.3397 12.2138L22.3499 12.3067L22.3592 12.3997L22.3675 12.4929L22.375 12.5862L22.3814 12.6797L22.3868 12.7732L22.3914 12.8668L22.395 12.9606L22.3975 13.0543L22.3992 13.1482L22.3999 13.2421L22.3996 13.3361L22.3984 13.4302L22.3961 13.5242L22.393 13.6183L22.3888 13.7124L22.3837 13.8065L22.3776 13.9006L22.3706 13.9946L22.3626 14.0887L22.3536 14.1827L22.3436 14.2767L22.3327 14.3706L22.3208 14.4644L22.308 14.5582L22.2941 14.6519L22.2793 14.7455L22.2636 14.839L22.2468 14.9324L22.2292 15.0257L22.2105 15.1188L22.1909 15.2118L22.1702 15.3047L22.1487 15.3974L22.1262 15.4899L22.1027 15.5822L22.0783 15.6744L22.0529 15.7663L22.0266 15.8581L21.9993 15.9496L21.971 16.041L21.9418 16.132L21.9117 16.2229L21.8806 16.3134L21.8485 16.4038L21.8156 16.4938L21.7817 16.5835L21.7468 16.673L21.711 16.7622L21.6743 16.851L21.6367 16.9396L21.5981 17.0278L21.5586 17.1156L21.5182 17.2032L21.4769 17.2903L21.4346 17.3771L21.3914 17.4636L21.3474 17.5496L21.3024 17.6353L21.2566 17.7205L21.2098 17.8054L21.1622 17.8897L21.1136 17.9737L21.0642 18.0573L21.0139 18.1404L20.9628 18.2231L20.9107 18.3052L20.8578 18.3869L20.804 18.4681L20.7494 18.5489L20.6939 18.6291L20.6376 18.7088L20.5804 18.788L20.5224 18.8668L20.4635 18.9449L20.4038 19.0225L20.3434 19.0996L20.282 19.1761L20.2199 19.252L20.157 19.3273L20.0932 19.4021L20.0287 19.4763L19.9633 19.5499L19.8972 19.6229L19.8304 19.6952L19.7627 19.767L19.6943 19.8381L19.6251 19.9085L19.5551 19.9783L19.4844 20.0475L19.413 20.116L19.3409 20.1839L19.268 20.251L19.1944 20.3175L19.12 20.3832L19.045 20.4483L18.9692 20.5127L18.8928 20.5764L18.8157 20.6393L18.7379 20.7015L18.6594 20.763L18.5803 20.8237L18.5005 20.8836L18.42 20.9429L18.339 21.0013L18.2572 21.059L18.1748 21.1159L18.0919 21.1721L18.0083 21.2274L17.9241 21.2819L17.8393 21.3357L17.754 21.3886L17.668 21.4408L17.5814 21.492L17.4943 21.5425L17.4067 21.5922L17.3185 21.6409L17.2298 21.6889L17.1405 21.736L17.0507 21.7823L16.9604 21.8277L16.8696 21.8722L16.7783 21.9158L16.6865 21.9587L16.5942 22.0006L16.5014 22.0416L16.4082 22.0817L16.3146 22.1209L16.2205 22.1592L16.126 22.1966L16.031 22.2331L15.9356 22.2688L15.8398 22.3034L15.7436 22.3372L15.647 22.3699L15.5501 22.4018L15.4528 22.4328L15.3551 22.4628L15.257 22.4918L15.1587 22.5199L15.06 22.5471L14.961 22.5733L14.8616 22.5985L14.762 22.6228L14.6621 22.6462L14.5618 22.6685L14.4613 22.6898L14.3606 22.7102L14.2596 22.7297L14.1583 22.7481L14.0569 22.7655L13.9552 22.782L13.8533 22.7975L13.7511 22.8119L13.6488 22.8254L13.5463 22.8379L13.4436 22.8493L13.3408 22.8598L13.2378 22.8693L13.1347 22.8778L13.0315 22.8852L12.9281 22.8917L12.8246 22.8971L12.721 22.9015L12.6174 22.9049L12.5136 22.9073L12.4098 22.9087L12.3059 22.9091L12.202 22.9084L12.098 22.9067L11.994 22.904L11.89 22.9003L11.7859 22.8955L11.6819 22.8898L11.578 22.883L11.4739 22.8752L11.37 22.8664L11.2661 22.8565L11.1623 22.8456L11.0585 22.8337L10.9548 22.8208L10.8512 22.8068L10.7477 22.7918L10.6443 22.7759L10.541 22.7588L10.4379 22.7408L10.3349 22.7218L10.232 22.7017L10.1293 22.6806L10.0268 22.6585L9.92446 22.6354L9.82235 22.6112L9.72041 22.5861L9.61868 22.5599L9.51717 22.5328L9.41593 22.5046L9.31492 22.4754L9.21412 22.4453L9.11364 22.4141L9.01344 22.3819L8.91352 22.3487L8.81386 22.3145L8.71453 22.2793L8.61553 22.2432L8.51686 22.2061L8.41852 22.168L8.32055 22.1288L8.22292 22.0888L8.12566 22.0477L8.02879 22.0057L7.9323 21.9627L7.83619 21.9187L7.74052 21.8738L7.64528 21.8279L7.55048 21.7811L7.45606 21.7333L7.36213 21.6846L7.2687 21.6349L7.17564 21.5843L7.08313 21.5328L6.99112 21.4803L6.89959 21.4269L6.80855 21.3726L6.71806 21.3174L6.62806 21.2612L6.53861 21.2042L6.44975 21.1462L6.36139 21.0874L6.27363 21.0276L6.18646 20.967L6.09984 20.9056L6.01383 20.8432L5.92842 20.7799L5.84363 20.7158L5.75946 20.6508L5.67592 20.585L5.59301 20.5183L5.51076 20.4509L5.42917 20.3825L5.34824 20.3134L5.26799 20.2434L5.18842 20.1725L5.10955 20.1009L5.03138 20.0285L4.95391 19.9553L4.87717 19.8813L4.80116 19.8065L4.72588 19.7309L4.65134 19.6546L4.57756 19.5775L4.50453 19.4996L4.43227 19.421L4.3608 19.3417L4.2901 19.2616L4.2202 19.1808L4.15109 19.0993L4.0828 19.0171L4.01532 18.9341L3.94866 18.8505L3.88283 18.7662L3.81784 18.6812L3.7537 18.5955L3.6904 18.5092L3.62797 18.4222L3.5664 18.3345L3.50571 18.2462L3.44589 18.1573L3.38697 18.0678L3.32893 17.9777L3.2718 17.8869L3.21557 17.7955L3.16026 17.7036L3.10587 17.6111L3.05241 17.518L2.99988 17.4244L2.94828 17.3302L2.89764 17.2354L2.84794 17.1401L2.7992 17.0443L2.75142 16.948L2.70461 16.8511L2.65878 16.7538L2.61392 16.656L2.57005 16.5576L2.52717 16.4589L2.48528 16.3596L2.4444 16.26L2.40451 16.1598L2.36565 16.0592L2.3278 15.9583L2.29096 15.8569L2.25515 15.7551L2.22037 15.6529L2.18662 15.5503L2.15392 15.4474L2.12225 15.3441L2.09163 15.2405L2.06206 15.1364L2.03355 15.0321L2.00609 14.9275L1.97969 14.8225L1.95436 14.7173L1.93011 14.6117L1.90692 14.5058L1.88481 14.3998L1.86377 14.2934L1.84382 14.1868L1.82495 14.08L1.80718 13.9729L1.79049 13.8656L1.77489 13.7581L1.76039 13.6504L1.747 13.5425L1.7347 13.4344L1.7235 13.3262L1.71341 13.2179L1.70442 13.1093L1.69655 13.0007L1.68978 12.8919L1.68413 12.783L1.67959 12.674L1.67617 12.565L1.67386 12.4559L1.67268 12.3467L1.67261 12.2374ZM12.2425 4.23651L12.2176 2.1364L12.194 2.13868L12.0856 2.15023L11.9774 2.16281L11.8693 2.17647L11.7616 2.19114L11.654 2.20689L11.5466 2.22368L11.4395 2.24151L11.3324 2.2604L11.226 2.28027L11.1193 2.30125L11.0135 2.32318L10.9074 2.34621L10.8019 2.37022L10.6966 2.3953L10.5917 2.42134L10.487 2.44843L10.3827 2.47653L10.2787 2.50564L10.1752 2.53573L10.0718 2.56685L9.96897 2.59894L9.86642 2.63205L9.76442 2.66607L9.66259 2.70117L9.5613 2.73721L9.4605 2.7742L9.35997 2.8122L9.25999 2.85113L9.16055 2.891L9.06139 2.93189L8.96272 2.97371L8.86453 3.01649L8.7669 3.06016L8.66975 3.10479L8.57315 3.15031L8.47688 3.19684L8.38132 3.24422L8.28624 3.29252L8.19172 3.34173L8.09773 3.39185L8.00441 3.44283L7.91146 3.49475L7.81912 3.54757L7.72759 3.60115L7.63633 3.65577L7.54595 3.71111L7.45617 3.76732L7.36682 3.82445L7.27819 3.88242L7.19021 3.94123L7.10304 4.00073L7.01621 4.06129L6.93024 4.1225L6.84493 4.18455L6.76023 4.24745L6.67628 4.3111L6.5931 4.37551L6.51041 4.44083L6.42864 4.50677L6.34748 4.57358L6.26708 4.64111L6.18739 4.70943L6.10852 4.7784L6.03023 4.84825L5.95284 4.91871L5.87611 4.98999L5.80027 5.06187L5.72513 5.13453L5.65081 5.20785L5.57726 5.28189L5.50442 5.35669L5.43253 5.43201L5.36146 5.50797L5.29101 5.58483L5.22154 5.66217L5.15292 5.74006L5.08501 5.81877L5.01808 5.89797L4.9519 5.97788L4.8866 6.05834L4.82216 6.13945L4.75856 6.2211L4.6959 6.3033L4.63405 6.3861L4.57306 6.46955L4.51305 6.55339L4.45384 6.63794L4.39558 6.72292L4.33821 6.80844L4.28171 6.89452L4.22616 6.98108L4.17152 7.06808L4.1178 7.15563L4.06504 7.24361L4.01314 7.33214L3.96218 7.42115L3.91222 7.5105L3.86316 7.60034L3.81503 7.69066L3.76788 7.78137L3.72166 7.87252L3.67643 7.96399L3.63215 8.0559L3.58884 8.14819L3.54647 8.24092L3.50511 8.33392L3.46469 8.42735L3.42525 8.52112L3.38682 8.61515L3.34936 8.70957L3.31287 8.80432L3.27739 8.89934L3.24289 8.99468L3.20941 9.09025L3.17689 9.18619L3.14539 9.28235L3.11489 9.37879L3.08541 9.47539L3.0569 9.57237L3.02943 9.66946L3.00295 9.76683L2.97749 9.86435L2.95303 9.96215L2.9296 10.0601L2.90718 10.1582L2.88578 10.2565L2.8654 10.3549L2.84603 10.4535L2.82768 10.5522L2.81036 10.6511L2.79406 10.7501L2.77878 10.8491L2.76452 10.9483L2.75129 11.0476L2.73907 11.1469L2.72789 11.2463L2.71773 11.3458L2.70859 11.4452L2.70047 11.5447L2.69338 11.6443L2.68732 11.7439L2.68227 11.8435L2.67825 11.9431L2.67525 12.0426L2.67328 12.1422L2.67232 12.2417L2.67238 12.3412L2.67346 12.4405L2.67556 12.5399L2.67868 12.6392L2.68281 12.7384L2.68795 12.8375L2.69411 12.9364L2.70127 13.0353L2.70945 13.134L2.71864 13.2326L2.72882 13.3312L2.74001 13.4294L2.7522 13.5276L2.76539 13.6256L2.77958 13.7234L2.79477 13.821L2.81093 13.9184L2.8281 14.0156L2.84625 14.1126L2.86537 14.2093L2.88549 14.3058L2.90657 14.402L2.92864 14.498L2.95167 14.5938L2.97567 14.6892L3.00064 14.7844L3.02656 14.8792L3.05345 14.9738L3.08129 15.068L3.11008 15.162L3.13982 15.2556L3.17049 15.3488L3.20211 15.4417L3.23466 15.5342L3.26814 15.6264L3.30253 15.7181L3.33787 15.8095L3.37411 15.9005L3.41126 15.9911L3.44933 16.0813L3.48829 16.171L3.52816 16.2604L3.56891 16.3493L3.61056 16.4377L3.65308 16.5257L3.69649 16.6132L3.74076 16.7002L3.78591 16.7868L3.83191 16.8728L3.87878 16.9584L3.92649 17.0435L3.97505 17.128L4.02444 17.2121L4.07468 17.2955L4.12572 17.3785L4.17761 17.4609L4.2303 17.5427L4.28381 17.624L4.33812 17.7048L4.39321 17.7849L4.4491 17.8645L4.50579 17.9435L4.56324 18.0218L4.62148 18.0996L4.68045 18.1768L4.74022 18.2533L4.8007 18.3292L4.86194 18.4044L4.92394 18.4791L4.98663 18.5531L5.05006 18.6264L5.1142 18.699L5.17907 18.771L5.24463 18.8423L5.31086 18.913L5.3778 18.9829L5.44541 19.0522L5.51371 19.1207L5.58265 19.1885L5.65228 19.2557L5.72252 19.322L5.79341 19.3878L5.86496 19.4527L5.93712 19.5169L6.00985 19.5804L6.08326 19.6431L6.15728 19.7051L6.23179 19.7663L6.30701 19.8268L6.38272 19.8864L6.45903 19.9453L6.53588 20.0034L6.61333 20.0608L6.69128 20.1173L6.76977 20.173L6.84875 20.2279L6.92833 20.2821L7.00835 20.3354L7.08897 20.3879L7.16997 20.4396L7.25152 20.4905L7.33355 20.5405L7.41597 20.5897L7.49893 20.6381L7.58228 20.6856L7.66612 20.7323L7.75033 20.7781L7.83504 20.8231L7.92008 20.8673L8.00555 20.9106L8.09146 20.953L8.17775 20.9945L8.26437 21.0352L8.35137 21.075L8.4387 21.1139L8.52646 21.152L8.6145 21.1891L8.70292 21.2255L8.79161 21.2609L8.88062 21.2953L8.96997 21.329L9.05953 21.3617L9.14943 21.3935L9.23964 21.4244L9.33008 21.4545L9.42079 21.4836L9.51166 21.5118L9.60292 21.5392L9.69428 21.5656L9.78592 21.591L9.87777 21.6156L9.96979 21.6393L10.062 21.662L10.1544 21.6839L10.247 21.7048L10.3397 21.7248L10.4326 21.7439L10.5256 21.762L10.6188 21.7793L10.712 21.7956L10.8054 21.811L10.8989 21.8254L10.9925 21.8389L11.0862 21.8515L11.1799 21.8633L11.2738 21.874L11.3676 21.8838L11.4616 21.8928L11.5555 21.9007L11.6495 21.9078L11.7435 21.9139L11.8375 21.9192L11.9315 21.9234L12.0255 21.9268L12.1195 21.9293L12.2135 21.9307L12.3073 21.9313L12.4012 21.931L12.495 21.9298L12.5887 21.9276L12.6824 21.9245L12.776 21.9205L12.8695 21.9156L12.9628 21.9098L13.0561 21.9031L13.1492 21.8954L13.2422 21.8869L13.3351 21.8774L13.4278 21.867L13.5203 21.8558L13.6127 21.8436L13.7049 21.8305L13.7969 21.8166L13.8887 21.8017L13.9804 21.786L14.0718 21.7693L14.1629 21.7518L14.2538 21.7334L14.3446 21.7141L14.435 21.694L14.5252 21.673L14.6151 21.651L14.7047 21.6283L14.7941 21.6046L14.8831 21.5801L14.9719 21.5548L15.0603 21.5285L15.1484 21.5015L15.2362 21.4736L15.3237 21.4448L15.4108 21.4152L15.4975 21.3848L15.5839 21.3535L15.67 21.3214L15.7556 21.2885L15.8408 21.2548L15.9257 21.2202L16.0101 21.1848L16.0942 21.1487L16.1778 21.1117L16.2609 21.0739L16.3437 21.0354L16.426 20.996L16.5078 20.9559L16.5893 20.9149L16.6702 20.8733L16.7506 20.8308L16.8306 20.7876L16.91 20.7436L16.989 20.6989L17.0675 20.6534L17.1455 20.6072L17.2229 20.5603L17.2999 20.5126L17.3762 20.4642L17.452 20.415L17.5273 20.3652L17.6021 20.3146L17.6762 20.2634L17.7498 20.2114L17.8228 20.1588L17.8952 20.1055L17.9671 20.0514L18.0383 19.9968L18.1091 19.9414L18.179 19.8854L18.2484 19.8288L18.3173 19.7715L18.3855 19.7135L18.453 19.655L18.5199 19.5958L18.5861 19.536L18.6517 19.4755L18.7167 19.4145L18.7809 19.3529L18.8446 19.2906L18.9075 19.2278L18.9697 19.1644L19.0313 19.1004L19.0921 19.036L19.1522 18.9709L19.2118 18.9052L19.2705 18.839L19.3286 18.7723L19.3859 18.7051L19.4425 18.6373L19.4983 18.569L19.5534 18.5003L19.6079 18.4309L19.6615 18.3612L19.7144 18.2909L19.7665 18.2202L19.818 18.149L19.8687 18.0773L19.9184 18.0053L19.9676 17.9327L20.0159 17.8597L20.0634 17.7863L20.1103 17.7124L20.1562 17.6382L20.2014 17.5636L20.2458 17.4883L20.2894 17.413L20.3322 17.3371L20.3742 17.2609L20.4154 17.1844L20.4558 17.1074L20.4954 17.03L20.534 16.9526L20.572 16.8746L20.6092 16.7963L20.6454 16.7177L20.6809 16.6388L20.7155 16.5596L20.7493 16.4802L20.7823 16.4004L20.8144 16.3203L20.8457 16.2402L20.8761 16.1594L20.9057 16.0787L20.9345 15.9976L20.9624 15.9163L20.9894 15.8348L21.0156 15.7532L21.041 15.6711L21.0654 15.5891L21.089 15.5068L21.1118 15.4243L21.1338 15.3416L21.1548 15.2588L21.175 15.1758L21.1943 15.0926L21.2128 15.0094L21.2304 14.926L21.2471 14.8426L21.263 14.7588L21.278 14.6752L21.2921 14.5913L21.3054 14.5074L21.3178 14.4234L21.3293 14.3393L21.34 14.2553L21.3498 14.1709L21.3587 14.0869L21.3667 14.0026L21.3739 13.9184L21.3802 13.834L21.3857 13.7498L21.3902 13.6655L21.394 13.581L21.3968 13.4968L21.3988 13.4128L21.3999 13.3284L21.4002 13.2442L21.3996 13.16L21.3981 13.076L21.3958 12.9919L21.3925 12.9082L21.3885 12.8242L21.3836 12.7405L21.3778 12.6568L21.3712 12.5734L21.3637 12.4898L21.3554 12.4067L21.3463 12.3234L21.3362 12.2405L21.3254 12.1576L21.3137 12.0749L21.3011 11.9922L21.2878 11.9099L21.2736 11.8279L21.2585 11.7458L21.2426 11.664L21.2259 11.5825L21.2083 11.5009L21.1901 11.42L21.1708 11.3389L21.1509 11.2584L21.13 11.1778L21.1084 11.0978L21.086 11.0179L21.0628 10.9381L21.0388 10.8589L21.0139 10.7799L20.9882 10.701L20.9619 10.6226L20.9346 10.5444L20.9067 10.4666L20.8779 10.389L20.8484 10.3119L20.818 10.2349L20.7869 10.1584L20.7551 10.0824L20.7226 10.0067L20.6891 9.93106L20.6551 9.85617L20.6201 9.78134L20.5846 9.70721L20.5482 9.63335L20.5111 9.55977L20.4733 9.48679L20.4348 9.41414L20.3954 9.34181L20.3556 9.27019L20.3149 9.19874L20.2735 9.12788L20.2314 9.05735L20.1887 8.98754L20.1451 8.91788L20.1011 8.84888L20.0562 8.78021L20.0107 8.71214L19.9646 8.64466L19.9177 8.57746L19.8702 8.51086L19.8221 8.44475L19.7732 8.37925L19.7238 8.31412L19.6738 8.24965L19.6231 8.18561L19.5718 8.12217L19.5198 8.05928L19.4672 7.99688L19.4141 7.93508L19.3603 7.87383L19.3061 7.81317L19.2511 7.75306L19.1955 7.69345L19.1396 7.63464L19.0828 7.57617L19.0256 7.51852L18.9679 7.4613L18.9096 7.40479L18.8506 7.34872L18.7914 7.29352L18.7314 7.23875L18.6709 7.18465L18.6101 7.13125L18.5486 7.07844L18.4865 7.02614L18.4241 6.97459L18.3612 6.9237L18.2977 6.87346L18.2338 6.82383L18.1696 6.77501L18.1046 6.72657L18.0394 6.67906L17.9737 6.63215L17.9075 6.58584L17.841 6.5403L17.7738 6.4953L17.7066 6.45123L17.6386 6.40765L17.5704 6.36483L17.5017 6.32266L17.4327 6.28121L17.3633 6.24052L17.2937 6.20059L17.2234 6.16115L17.153 6.12265L17.0821 6.08474L17.011 6.04759L16.9395 6.01121L16.8676 5.97548L16.7954 5.94046L16.723 5.90626L16.6502 5.87272L16.5772 5.83999L16.5038 5.80792L16.4279 5.77563L16.3564 5.74612L16.2821 5.71623L16.2078 5.68726L16.133 5.65885L16.0582 5.63135L15.983 5.60452L15.9077 5.5785L15.832 5.55314L15.7563 5.52864L15.6803 5.50486L15.6041 5.48185L15.5278 5.45965L15.4512 5.43813L15.3744 5.41736L15.2976 5.39744L15.2207 5.37827L15.1433 5.3598L15.0662 5.34219L14.9887 5.32528L14.9112 5.30919L14.8334 5.29383L14.7557 5.27928L14.6778 5.26548L14.6 5.25248L14.5218 5.24021L14.4438 5.22875L14.3656 5.21805L14.2873 5.20811L14.2091 5.19896L14.1308 5.19059L14.0525 5.18299L13.9741 5.17616L13.8956 5.1701L13.8172 5.16481L13.7389 5.16031L13.6606 5.15657L13.582 5.1536L13.5038 5.1514L13.4255 5.14997L13.3472 5.14932L13.2688 5.14943L13.2531 5.14961L13.2778 7.23445L13.3223 7.23423L13.3795 7.23455L13.4367 7.23543L13.494 7.2369L13.5513 7.23892L13.6086 7.24154L13.666 7.2447L13.7233 7.24841L13.7807 7.25272L13.8381 7.25757L13.8955 7.26303L13.9528 7.26903L14.0102 7.27563L14.0675 7.28277L14.1248 7.29046L14.1821 7.29881L14.2393 7.30765L14.2964 7.31708L14.3536 7.32712L14.4107 7.3377L14.4677 7.34888L14.5246 7.36061L14.5815 7.37288L14.6383 7.38575L14.695 7.39923L14.7516 7.41324L14.808 7.42781L14.8644 7.44297L14.9207 7.45868L14.9769 7.47499L15.033 7.49185L15.0889 7.50925L15.1446 7.52725L15.2003 7.54579L15.2558 7.56494L15.3111 7.58463L15.3663 7.60486L15.4213 7.62565L15.4762 7.64703L15.5308 7.66895L15.5853 7.69143L15.6396 7.7145L15.6937 7.73806L15.7476 7.76223L15.8012 7.78688L15.8547 7.81214L15.908 7.83794L15.961 7.86428L16.0138 7.89117L16.0664 7.91861L16.1187 7.94654L16.1708 7.97506L16.2226 8.00408L16.2742 8.03365L16.3255 8.06375L16.3765 8.09441L16.4273 8.12555L16.4777 8.15725L16.5279 8.18948L16.5778 8.22221L16.6274 8.25543L16.6767 8.28919L16.7257 8.3235L16.7743 8.35825L16.8227 8.39354L16.8707 8.42937L16.9184 8.46565L16.9657 8.50246L17.0127 8.53977L17.0593 8.57752L17.1056 8.61581L17.1516 8.65459L17.1972 8.69381L17.2424 8.73352L17.2872 8.77372L17.3317 8.81441L17.3757 8.85554L17.4194 8.89715L17.4626 8.93921L17.5055 8.98175L17.548 9.02474L17.5901 9.06821L17.6317 9.11206L17.6729 9.15641L17.7137 9.20119L17.7541 9.24641L17.794 9.29201L17.8335 9.3381L17.8726 9.38457L17.9112 9.43148L17.9493 9.47883L17.987 9.52655L18.0242 9.57472L18.061 9.62326L18.0972 9.67225L18.133 9.72155L18.1684 9.7713L18.2032 9.82143L18.2375 9.87194L18.2713 9.92283L18.3047 9.97405L18.3375 10.0257L18.3698 10.0777L18.4017 10.13L18.433 10.1827L18.4638 10.2358L18.494 10.2891L18.5238 10.3428L18.553 10.3969L18.5816 10.4513L18.6098 10.506L18.6373 10.561L18.6644 10.6164L18.6909 10.672L18.7168 10.7279L18.7422 10.7842L18.767 10.8407L18.7913 10.8976L18.8149 10.9547L18.8381 11.012L18.8606 11.0697L18.8825 11.1276L18.9039 11.1858L18.9247 11.2442L18.9449 11.3029L18.9646 11.3618L18.9835 11.421L19.002 11.4803L19.0198 11.5399L19.037 11.5998L19.0537 11.6598L19.0697 11.7201L19.0851 11.7805L19.0999 11.8412L19.1141 11.902L19.1276 11.963L19.1406 12.0242L19.1529 12.0856L19.1646 12.1471L19.1756 12.2089L19.1861 12.2707L19.1959 12.3327L19.2051 12.3949L19.2137 12.4571L19.2216 12.5195L19.2289 12.5821L19.2355 12.6448L19.2415 12.7075L19.2469 12.7704L19.2516 12.8333L19.2557 12.8964L19.259 12.9595L19.2618 13.0227L19.264 13.086L19.2654 13.1494L19.2662 13.2128L19.2664 13.2763L19.2659 13.3398L19.2648 13.4033L19.263 13.4669L19.2605 13.5306L19.2574 13.5942L19.2536 13.6578L19.2492 13.7215L19.2442 13.7852L19.2384 13.8488L19.232 13.9125L19.2249 13.9761L19.2172 14.0398L19.2088 14.1033L19.1998 14.1668L19.19 14.2303L19.1797 14.2938L19.1687 14.3572L19.1569 14.4205L19.1446 14.4838L19.1316 14.5469L19.1179 14.61L19.1036 14.673L19.0886 14.7359L19.0729 14.7987L19.0566 14.8614L19.0397 14.924L19.022 14.9864L19.0038 15.0487L18.9848 15.1109L18.9653 15.173L18.945 15.2349L18.9241 15.2966L18.9025 15.3582L18.8804 15.4196L18.8575 15.4808L18.834 15.5418L18.8099 15.6027L18.7852 15.6634L18.7597 15.7238L18.7337 15.7841L18.707 15.8441L18.6797 15.904L18.6517 15.9635L18.6231 16.0229L18.5939 16.082L18.564 16.1408L18.5335 16.1995L18.5024 16.2578L18.4706 16.3159L18.4383 16.3737L18.4054 16.4312L18.3718 16.4885L18.3376 16.5455L18.3028 16.6021L18.2674 16.6585L18.2313 16.7145L18.1947 16.7702L18.1574 16.8256L18.1196 16.8807L18.0812 16.9355L18.0422 16.9898L18.0026 17.0439L17.9625 17.0976L17.9218 17.151L17.8804 17.2039L17.8385 17.2565L17.796 17.3088L17.753 17.3606L17.7094 17.4121L17.6652 17.4631L17.6205 17.5138L17.5752 17.564L17.5294 17.6139L17.483 17.6633L17.4362 17.7124L17.3887 17.7609L17.3408 17.8091L17.2922 17.8567L17.2433 17.904L17.1937 17.9508L17.1437 17.9971L17.0931 18.0431L17.042 18.0884L16.9904 18.1334L16.9384 18.1779L16.8858 18.2219L16.8328 18.2654L16.7792 18.3084L16.7252 18.3509L16.6707 18.3929L16.6158 18.4344L16.5604 18.4753L16.5044 18.5158L16.4482 18.5558L16.3914 18.5952L16.3342 18.6341L16.2764 18.6724L16.2184 18.7102L16.1598 18.7475L16.1009 18.7842L16.0415 18.8203L15.9818 18.8559L15.9216 18.8909L15.861 18.9253L15.8 18.9592L15.7387 18.9925L15.6769 19.0253L15.6148 19.0574L15.5523 19.0889L15.4895 19.1198L15.4262 19.1502L15.3626 19.18L15.2987 19.2091L15.2345 19.2376L15.1699 19.2655L15.1049 19.2928L15.0397 19.3195L14.9741 19.3456L14.9082 19.371L14.8421 19.3958L14.7756 19.42L14.7088 19.4435L14.6417 19.4663L14.5744 19.4886L14.5068 19.5101L14.4389 19.5311L14.3708 19.5514L14.3024 19.5709L14.2338 19.5899L14.1649 19.6082L14.0958 19.6258L14.0264 19.6428L13.9569 19.6591L13.8871 19.6747L13.8172 19.6896L13.747 19.7039L13.6766 19.7174L13.6061 19.7304L13.5353 19.7426L13.4644 19.7541L13.3934 19.7649L13.3222 19.775L13.2508 19.7845L13.1792 19.7933L13.1076 19.8013L13.0358 19.8086L12.964 19.8153L12.892 19.8212L12.8198 19.8265L12.7476 19.831L12.6753 19.8348L12.6029 19.8379L12.5304 19.8403L12.4579 19.842L12.3853 19.843L12.3126 19.8433L12.2399 19.8428L12.1672 19.8416L12.0943 19.8398L12.0215 19.8372L11.9487 19.8338L11.8758 19.8298L11.803 19.8251L11.7301 19.8196L11.6573 19.8134L11.5845 19.8065L11.5117 19.7988L11.4389 19.7905L11.3662 19.7814L11.2935 19.7716L11.2209 19.7611L11.1484 19.7498L11.0759 19.7379L11.0034 19.7252L10.9311 19.7118L10.8589 19.6977L10.7868 19.6828L10.7147 19.6673L10.6428 19.651L10.571 19.634L10.4994 19.6163L10.4279 19.5978L10.3565 19.5787L10.2852 19.5588L10.2142 19.5383L10.1433 19.517L10.0726 19.495L10.002 19.4723L9.93172 19.4489L9.86152 19.4248L9.79159 19.3999L9.72188 19.3744L9.65233 19.3482L9.58306 19.3212L9.51401 19.2936L9.44517 19.2653L9.37661 19.2362L9.30832 19.2066L9.2403 19.1761L9.1725 19.145L9.10502 19.1133L9.03783 19.0808L8.9709 19.0477L8.90424 19.0139L8.83797 18.9794L8.77197 18.9442L8.7063 18.9084L8.64095 18.8719L8.57593 18.8347L8.51124 18.7969L8.44693 18.7584L8.38295 18.7192L8.31935 18.6794L8.25613 18.639L8.1933 18.5979L8.13084 18.5561L8.06877 18.5137L8.00708 18.4708L7.94583 18.4271L7.88495 18.3828L7.82452 18.3379L7.76446 18.2924L7.7049 18.2462L7.64577 18.1995L7.58708 18.1521L7.52882 18.1042L7.47101 18.0556L7.41368 18.0064L7.35684 17.9566L7.30044 17.9063L7.24453 17.8553L7.18917 17.8038L7.13424 17.7517L7.07981 17.699L7.02592 17.6458L6.97257 17.592L6.91972 17.5376L6.86735 17.4828L6.81553 17.4273L6.76432 17.3713L6.71359 17.3148L6.66341 17.2577L6.61383 17.2001L6.56473 17.142L6.5163 17.0834L6.46835 17.0242L6.42106 16.9646L6.37432 16.9044L6.32817 16.8438L6.28263 16.7826L6.23763 16.721L6.19328 16.6589L6.14959 16.5964L6.10644 16.5333L6.06395 16.4698L6.02209 16.4059L5.98086 16.3415L5.94027 16.2766L5.90032 16.2113L5.86101 16.1456L5.82236 16.0795L5.78436 16.0129L5.74703 15.946L5.71036 15.8785L5.67437 15.8108L5.63904 15.7426L5.6044 15.674L5.57045 15.6051L5.53718 15.5358L5.50461 15.4661L5.47273 15.396L5.44155 15.3257L5.41108 15.2549L5.38132 15.1838L5.35227 15.1124L5.32395 15.0407L5.29633 14.9686L5.26945 14.8962L5.24329 14.8235L5.21787 14.7505L5.19318 14.6772L5.16923 14.6036L5.14602 14.5298L5.12356 14.4557L5.10184 14.3813L5.08088 14.3067L5.06067 14.2318L5.04123 14.1566L5.02254 14.0813L5.00461 14.0057L4.98745 13.9299L4.97106 13.8539L4.95545 13.7777L4.94061 13.7012L4.92654 13.6246L4.91325 13.5478L4.90075 13.4708L4.88903 13.3937L4.87809 13.3164L4.86795 13.239L4.85859 13.1614L4.85003 13.0836L4.84225 13.0058L4.83528 12.9278L4.8291 12.8497L4.82373 12.7715L4.81914 12.6932L4.81537 12.6148L4.8124 12.5364L4.81023 12.4578L4.80887 12.3792L4.80831 12.3005L4.80857 12.2218L4.80963 12.143L4.8115 12.0643L4.81418 11.9855L4.81768 11.9066L4.82199 11.8278L4.8271 11.7489L4.83304 11.6701L4.83978 11.5912L4.84734 11.5124L4.85572 11.4336L4.8649 11.3549L4.87491 11.2762L4.88572 11.1976L4.89735 11.119L4.9098 11.0405L4.92305 10.962L4.93713 10.8837L4.95201 10.8054L4.96771 10.7273L4.98421 10.6493L5.00154 10.5713L5.01967 10.4935L5.03861 10.4159L5.05835 10.3384L5.07891 10.261L5.10027 10.1838L5.12244 10.1068L5.14541 10.0299L5.16918 9.95321L5.19376 9.87668L5.21914 9.80043L5.24531 9.72434L5.27228 9.64846L5.30004 9.57281L5.3286 9.49737L5.35794 9.42221L5.38808 9.34726L5.419 9.27259L5.45071 9.19819L5.4832 9.12401L5.51647 9.05015L5.55051 8.97657L5.58533 8.90326L5.62092 8.83028L5.65729 8.75763L5.69442 8.68525L5.73231 8.61325L5.77096 8.54152L5.81038 8.47017L5.85054 8.39915L5.89146 8.32846L5.93313 8.25821L5.97554 8.18828L6.01869 8.11874L6.06259 8.04957L6.10721 7.98079L6.15259 7.91245L6.19863 7.84448L6.24548 7.77695L6.29299 7.70981L6.34121 7.6431L6.39019 7.57688L6.43983 7.51105L6.49023 7.4457L6.54128 7.38079L6.59304 7.31637L6.64546 7.25245L6.69859 7.18895L6.75243 7.12595L6.80692 7.06345L6.86206 7.00148L6.91792 6.94001L6.97437 6.87903L7.03153 6.81859L7.08935 6.75864L7.14777 6.6993L7.20684 6.64045L7.26657 6.58214L7.32695 6.52443L7.38793 6.46721L7.44952 6.41065L7.51175 6.35457L7.57459 6.29915L7.63797 6.24428L7.70201 6.19001L7.76664 6.13634L7.83182 6.08326L7.89761 6.03079L7.96399 5.97897L8.03092 5.92775L8.09839 5.87719L8.16646 5.82723L8.23503 5.77792L8.30413 5.72926L8.37384 5.68126L8.44404 5.63392L8.51473 5.58728L8.58602 5.54125L8.65775 5.49592L8.73002 5.45127L8.80279 5.4073L8.87604 5.36402L8.94973 5.32144L9.02397 5.27956L9.09864 5.23839L9.17375 5.19793L9.24935 5.15819L9.32539 5.11917L9.40186 5.08087L9.47877 5.04331L9.55612 5.00648L9.6339 4.97039L9.71206 4.93504L9.79066 4.90044L9.86964 4.86661L9.94901 4.83352L10.0288 4.8012L10.1088 4.76965L10.1893 4.73886L10.2702 4.70885L10.3514 4.67962L10.4329 4.65117L10.5148 4.6235L10.597 4.59663L10.6795 4.57055L10.7623 4.54526L10.8455 4.52078L10.9289 4.4971L11.0126 4.47422L11.0966 4.45216L11.1809 4.43091L11.2654 4.41047L11.3502 4.39086L11.4352 4.37207L11.5205 4.3541L11.6059 4.33696L11.6917 4.32066L11.7776 4.30519L11.8637 4.29054L11.9501 4.27675L12.0366 4.26379L12.1232 4.25167L12.2101 4.2404L12.2425 4.23651ZM12.2791 7.32875L12.2542 5.221L12.183 5.23095L12.1064 5.24242L12.0299 5.25466L11.9538 5.26759L11.8776 5.28131L11.8018 5.29574L11.7261 5.31091L11.6507 5.32679L11.5755 5.34342L11.5004 5.36079L11.4256 5.37887L11.3511 5.39767L11.2766 5.41721L11.2051 5.43674L11.1289 5.45839L11.0554 5.48004L10.9821 5.50241L10.9092 5.52543L10.8365 5.54921L10.7641 5.5737L10.692 5.59885L10.6202 5.62465L10.5488 5.65121L10.4777 5.67837L10.4068 5.7063L10.3365 5.73483L10.2662 5.76412L10.1964 5.79401L10.127 5.82455L10.058 5.85575L9.98926 5.88766L9.92086 5.92023L9.85306 5.95334L9.78537 5.98721L9.71839 6.02163L9.65152 6.05681L9.5853 6.09243L9.51919 6.12892L9.45373 6.16579L9.38872 6.20337L9.32402 6.24161L9.25982 6.28039L9.19595 6.31988L9.13273 6.35981L9.06979 6.40044L9.00744 6.44163L8.94553 6.48335L8.88406 6.52574L8.82297 6.56872L8.76259 6.61208L8.70253 6.65621L8.64297 6.70083L8.58395 6.74599L8.52548 6.79165L8.46739 6.83795L8.40995 6.8847L8.35301 6.93199L8.2965 6.97994L8.2407 7.02821L8.18528 7.07714L8.13041 7.12655L8.07613 7.17641L8.02246 7.22675L7.96917 7.2777L7.91664 7.32897L7.86461 7.38079L7.81306 7.43315L7.76217 7.4859L7.71183 7.53919L7.66208 7.59286L7.61293 7.64697L7.56433 7.70157L7.51628 7.75666L7.46904 7.81203L7.42224 7.86794L7.37604 7.92428L7.3305 7.98095L7.28561 8.03801L7.24121 8.09561L7.19752 8.15348L7.15443 8.21179L7.11199 8.27048L7.07015 8.32955L7.02903 8.3889L6.9885 8.44868L6.94857 8.50885L6.9093 8.56934L6.87073 8.6301L6.83282 8.69125L6.79552 8.75283L6.75886 8.81457L6.72292 8.8767L6.68757 8.93915L6.65299 9.00177L6.61901 9.06483L6.58563 9.12821L6.55306 9.1917L6.5211 9.25563L6.48984 9.31977L6.45924 9.38408L6.42935 9.44877L6.40012 9.51363L6.37159 9.57875L6.34372 9.6441L6.31661 9.70966L6.29015 9.77544L6.26435 9.8415L6.23926 9.90772L6.21493 9.9741L6.19121 10.0408L6.1683 10.1075L6.14599 10.1744L6.12444 10.2416L6.10355 10.3089L6.08343 10.3763L6.06395 10.4439L6.04524 10.5116L6.02719 10.5795L6.00987 10.6475L5.99326 10.7156L5.97737 10.7838L5.96218 10.8521L5.94769 10.9206L5.93394 10.9891L5.92089 11.0576L5.90855 11.1264L5.89694 11.1951L5.88603 11.2639L5.87584 11.3327L5.86636 11.4017L5.8576 11.4706L5.84955 11.5396L5.84221 11.6086L5.83559 11.6777L5.82968 11.7467L5.82449 11.8157L5.82 11.8848L5.81623 11.9539L5.81317 12.0229L5.81082 12.0919L5.80918 12.1608L5.80825 12.2298L5.80803 12.2987L5.80852 12.3676L5.80971 12.4363L5.81161 12.5051L5.81421 12.5737L5.81751 12.6423L5.82151 12.7108L5.82622 12.7792L5.83162 12.8475L5.83772 12.9157L5.84452 12.9838L5.85201 13.0517L5.86018 13.1196L5.86906 13.1873L5.87861 13.2548L5.88886 13.3223L5.89979 13.3895L5.9114 13.4567L5.92369 13.5236L5.93666 13.5904L5.95031 13.657L5.96462 13.7234L5.97961 13.7897L5.99526 13.8556L6.01159 13.9214L6.02857 13.9871L6.04623 14.0525L6.0645 14.1176L6.08348 14.1826L6.10306 14.2472L6.12335 14.3117L6.14424 14.376L6.16579 14.4399L6.18799 14.5036L6.21079 14.567L6.23424 14.6302L6.25835 14.693L6.28306 14.7556L6.30837 14.8179L6.33433 14.8799L6.3609 14.9416L6.38812 15.003L6.41588 15.0641L6.4443 15.1248L6.47332 15.1852L6.50288 15.2453L6.5331 15.305L6.56386 15.3645L6.59523 15.4236L6.62719 15.4823L6.6597 15.5406L6.69281 15.5986L6.72646 15.6562L6.76072 15.7134L6.79552 15.7703L6.83086 15.8268L6.86675 15.8828L6.90324 15.9386L6.94017 15.9938L6.97775 16.0487L7.01577 16.1032L7.05439 16.1572L7.0935 16.2108L7.13315 16.264L7.1733 16.3168L7.21399 16.3691L7.25512 16.421L7.29679 16.4724L7.33895 16.5234L7.38161 16.574L7.42475 16.624L7.46839 16.6737L7.51246 16.7228L7.55703 16.7715L7.60202 16.8197L7.64752 16.8674L7.69344 16.9146L7.73986 16.9614L7.78666 17.0076L7.83395 17.0534L7.88168 17.0987L7.92973 17.1434L7.97833 17.1877L8.02726 17.2314L8.07662 17.2746L8.12642 17.3173L8.17661 17.3594L8.22717 17.4011L8.27812 17.4422L8.32944 17.4828L8.38115 17.5228L8.43324 17.5624L8.48572 17.6013L8.53846 17.6397L8.59159 17.6776L8.6451 17.7149L8.69893 17.7516L8.75315 17.7878L8.80764 17.8235L8.86246 17.8585L8.91761 17.8931L8.97303 17.927L9.02877 17.9604L9.08484 17.9932L9.14113 18.0253L9.19781 18.057L9.25464 18.088L9.31186 18.1185L9.3693 18.1484L9.42695 18.1776L9.48493 18.2064L9.54319 18.2345L9.60161 18.262L9.66024 18.2889L9.71921 18.3152L9.77828 18.3409L9.83763 18.366L9.89719 18.3906L9.95697 18.4145L10.0169 18.4378L10.077 18.4604L10.1374 18.4825L10.1978 18.504L10.2585 18.5249L10.3194 18.5452L10.3804 18.5647L10.4415 18.5838L10.5028 18.6022L10.5642 18.6199L10.6258 18.6371L10.6874 18.6536L10.7492 18.6696L10.8112 18.6849L10.8732 18.6996L10.9353 18.7136L10.9975 18.7271L11.0598 18.7399L11.1222 18.7521L11.1847 18.7637L11.2471 18.7746L11.3098 18.785L11.3724 18.7946L11.435 18.8038L11.4978 18.8122L11.5605 18.8201L11.6233 18.8273L11.6861 18.8339L11.7489 18.8398L11.8117 18.8452L11.8746 18.8498L11.9374 18.854L12.0002 18.8574L12.063 18.8603L12.1258 18.8626L12.1885 18.8642L12.2512 18.8652L12.3139 18.8656L12.3765 18.8653L12.4391 18.8645L12.5016 18.863L12.564 18.861L12.6264 18.8583L12.6886 18.855L12.7508 18.8511L12.8129 18.8466L12.8749 18.8414L12.9367 18.8357L12.9985 18.8294L13.0602 18.8225L13.1218 18.8149L13.1832 18.8068L13.2444 18.7981L13.3056 18.7888L13.3666 18.7789L13.4273 18.7684L13.488 18.7573L13.5485 18.7456L13.6088 18.7334L13.6691 18.7205L13.729 18.7071L13.7887 18.6931L13.8483 18.6785L13.9077 18.6634L13.9669 18.6477L14.0258 18.6314L14.0846 18.6145L14.1431 18.5971L14.2014 18.5792L14.2594 18.5606L14.3173 18.5416L14.3748 18.5219L14.4322 18.5017L14.4892 18.481L14.546 18.4597L14.6025 18.4379L14.6587 18.4156L14.7148 18.3926L14.7704 18.3692L14.8258 18.3453L14.881 18.3209L14.9357 18.2959L14.9903 18.2704L15.0445 18.2443L15.0983 18.2179L15.1519 18.1908L15.2051 18.1633L15.2581 18.1352L15.3106 18.1067L15.3628 18.0777L15.4147 18.0482L15.4662 18.0182L15.5174 17.9877L15.5683 17.9568L15.6187 17.9254L15.6689 17.8934L15.7185 17.8612L15.7679 17.8283L15.8169 17.795L15.8654 17.7613L15.9136 17.7272L15.9614 17.6925L16.0088 17.6575L16.0558 17.622L16.1024 17.5861L16.1485 17.5498L16.1944 17.513L16.2397 17.4758L16.2845 17.4383L16.3291 17.4001L16.3732 17.3618L16.4167 17.3231L16.46 17.2837L16.5027 17.2442L16.545 17.2043L16.5869 17.1639L16.6283 17.1232L16.6692 17.0821L16.7098 17.0406L16.7498 16.9988L16.7893 16.9566L16.8284 16.9141L16.8671 16.8712L16.9051 16.8281L16.9429 16.7844L16.98 16.7406L17.0167 16.6964L17.053 16.6518L17.0886 16.607L17.1239 16.5618L17.1586 16.5164L17.1929 16.4706L17.2266 16.4245L17.2597 16.3783L17.2925 16.3315L17.3247 16.2847L17.3564 16.2375L17.3876 16.19L17.4182 16.1424L17.4484 16.0944L17.478 16.0461L17.5072 15.9977L17.5357 15.949L17.5638 15.8999L17.5913 15.8509L17.6183 15.8014L17.6448 15.7518L17.6706 15.702L17.6961 15.6518L17.7209 15.6017L17.7452 15.5511L17.7689 15.5006L17.7923 15.4496L17.8148 15.3988L17.837 15.3474L17.8586 15.2962L17.8796 15.2447L17.9002 15.193L17.9201 15.1411L17.9394 15.0892L17.9584 15.037L17.9766 14.9848L17.9943 14.9324L18.0115 14.8799L18.0281 14.8272L18.0442 14.7744L18.0597 14.7216L18.0746 14.6686L18.089 14.6156L18.1028 14.5624L18.1161 14.5092L18.1288 14.4559L18.141 14.4024L18.1525 14.349L18.1636 14.2955L18.174 14.242L18.184 14.1883L18.1933 14.1345L18.2021 14.0809L18.2103 14.0271L18.2179 13.9733L18.225 13.9195L18.2316 13.8657L18.2376 13.8117L18.243 13.7581L18.2479 13.704L18.2522 13.6502L18.2559 13.5965L18.2591 13.5426L18.2617 13.4888L18.2638 13.4351L18.2653 13.3812L18.2663 13.3276L18.2667 13.2738L18.2665 13.2202L18.2659 13.1666L18.2646 13.1132L18.2628 13.0597L18.2605 13.0063L18.2576 12.9531L18.2542 12.8998L18.2502 12.8466L18.2457 12.7937L18.2406 12.7406L18.235 12.6878L18.2288 12.635L18.2222 12.5824L18.215 12.5299L18.2072 12.4774L18.199 12.4252L18.1902 12.3731L18.1808 12.3211L18.171 12.2693L18.1606 12.2174L18.1496 12.1659L18.1382 12.1146L18.1263 12.0633L18.1138 12.0121L18.1009 11.9614L18.0874 11.9105L18.0734 11.8601L18.0589 11.8097L18.0439 11.7596L18.0284 11.7096L18.0124 11.6598L17.9959 11.6103L17.9789 11.561L17.9614 11.5117L17.9435 11.4629L17.925 11.4142L17.906 11.3658L17.8866 11.3176L17.8667 11.2695L17.8464 11.2219L17.8255 11.1743L17.8042 11.1271L17.7824 11.0802L17.7602 11.0334L17.7374 10.9869L17.7144 10.9408L17.6907 10.8948L17.6667 10.8493L17.6422 10.804L17.6172 10.7588L17.5919 10.7141L17.5661 10.6696L17.5398 10.6255L17.5131 10.5815L17.4861 10.538L17.4585 10.4947L17.4306 10.4518L17.4023 10.4092L17.3735 10.3669L17.3443 10.3249L17.3147 10.2833L17.2848 10.242L17.2544 10.201L17.2237 10.1604L17.1925 10.1201L17.1611 10.0802L17.1291 10.0405L17.0968 10.0013L17.0641 9.96243L17.0311 9.92386L16.9978 9.88579L16.964 9.84794L16.93 9.81057L16.8955 9.77348L16.8608 9.73694L16.8256 9.70055L16.7902 9.66472L16.7543 9.6291L16.7182 9.59403L16.6818 9.55934L16.645 9.52497L16.6079 9.49099L16.5704 9.4575L16.5328 9.42439L16.4946 9.39155L16.4565 9.35937L16.4178 9.32735L16.3789 9.29588L16.3398 9.26484L16.3003 9.23408L16.2606 9.20386L16.2207 9.17414L16.1803 9.14468L16.1397 9.11561L16.0991 9.08719L16.0579 9.05899L16.0168 9.03144L15.9752 9.00417L15.9335 8.97734L15.8914 8.95094L15.8493 8.92508L15.8068 8.89955L15.7642 8.87457L15.7212 8.84992L15.6782 8.82586L15.6349 8.80219L15.5914 8.7789L15.5477 8.7561L15.5039 8.73385L15.4598 8.71192L15.4156 8.69048L15.3712 8.66954L15.3268 8.64908L15.2818 8.62895L15.2371 8.60943L15.192 8.59034L15.1468 8.57163L15.1014 8.55346L15.056 8.53579L15.0104 8.51855L14.9646 8.5017L14.9188 8.48545L14.8728 8.46957L14.8266 8.45419L14.7805 8.4393L14.7342 8.4249L14.6879 8.41094L14.6412 8.39741L14.5947 8.38443L14.5481 8.37188L14.5013 8.35983L14.4545 8.34821L14.4075 8.33708L14.3606 8.32645L14.3137 8.3163L14.2666 8.30659L14.2193 8.29732L14.1724 8.28865L14.1251 8.28035L14.0779 8.27255L14.0305 8.26519L13.9834 8.25837L13.9358 8.25194L13.8887 8.2461L13.8413 8.24065L13.794 8.23568L13.7467 8.23121L13.6993 8.22717L13.6521 8.22363L13.6046 8.22057L13.5574 8.21795L13.5103 8.21583L13.4628 8.21414L13.4158 8.21294L13.3686 8.21223L13.3216 8.21195L13.2894 8.21206L13.3138 10.2714L13.3283 10.2714L13.3554 10.2718L13.3825 10.2725L13.4096 10.2733L13.4368 10.2746L13.464 10.2761L13.4912 10.2778L13.5185 10.2799L13.5458 10.2822L13.5731 10.2848L13.6004 10.2877L13.6278 10.2909L13.6552 10.2944L13.6825 10.2982L13.7099 10.3022L13.7372 10.3066L13.7646 10.3112L13.792 10.3161L13.8193 10.3213L13.8467 10.3268L13.874 10.3326L13.9013 10.3387L13.9286 10.3451L13.9559 10.3517L13.9831 10.3586L14.0104 10.3659L14.0375 10.3734L14.0647 10.3812L14.0918 10.3894L14.1188 10.3978L14.1458 10.4065L14.1728 10.4155L14.1997 10.4248L14.2266 10.4343L14.2534 10.4442L14.2801 10.4543L14.3068 10.4647L14.3334 10.4755L14.3599 10.4865L14.3864 10.4978L14.4128 10.5094L14.4391 10.5213L14.4653 10.5335L14.4914 10.546L14.5175 10.5587L14.5434 10.5717L14.5692 10.5851L14.595 10.5986L14.6206 10.6126L14.6461 10.6267L14.6716 10.6412L14.6969 10.6559L14.722 10.6709L14.7471 10.6862L14.772 10.7018L14.7968 10.7177L14.8215 10.7338L14.846 10.7502L14.8705 10.767L14.8948 10.7839L14.9189 10.8012L14.9429 10.8187L14.9667 10.8365L14.9904 10.8545L15.0139 10.8728L15.0373 10.8914L15.0605 10.9103L15.0835 10.9294L15.1064 10.9488L15.1291 10.9685L15.1516 10.9884L15.174 11.0086L15.1961 11.029L15.2181 11.0497L15.2399 11.0706L15.2615 11.0918L15.2829 11.1133L15.3041 11.135L15.3252 11.1569L15.346 11.1791L15.3666 11.2016L15.387 11.2243L15.4072 11.2472L15.4272 11.2704L15.4469 11.2938L15.4665 11.3174L15.4858 11.3413L15.5049 11.3654L15.5238 11.3897L15.5424 11.4143L15.5609 11.4391L15.579 11.4641L15.5969 11.4893L15.6146 11.5148L15.6321 11.5405L15.6493 11.5664L15.6662 11.5925L15.683 11.6188L15.6994 11.6453L15.7156 11.672L15.7315 11.699L15.7472 11.7261L15.7626 11.7534L15.7777 11.781L15.7926 11.8087L15.8072 11.8366L15.8215 11.8647L15.8356 11.893L15.8494 11.9214L15.8628 11.9501L15.876 11.9789L15.889 12.0079L15.9016 12.0371L15.9139 12.0665L15.926 12.096L15.9377 12.1256L15.9492 12.1555L15.9604 12.1855L15.9712 12.2156L15.9817 12.246L15.992 12.2764L16.0019 12.307L16.0115 12.3378L16.0208 12.3686L16.0298 12.3997L16.0385 12.4309L16.0469 12.4621L16.055 12.4936L16.0627 12.5251L16.0701 12.5568L16.0772 12.5886L16.084 12.6205L16.0904 12.6526L16.0964 12.6846L16.1022 12.7169L16.1077 12.7493L16.1128 12.7817L16.1176 12.8142L16.122 12.8468L16.1261 12.8796L16.1298 12.9124L16.1333 12.9453L16.1363 12.9782L16.139 13.0113L16.1414 13.0445L16.1435 13.0776L16.1452 13.1109L16.1465 13.1442L16.1475 13.1776L16.1481 13.211L16.1484 13.2445L16.1483 13.278L16.1479 13.3116L16.1472 13.3453L16.146 13.3789L16.1446 13.4126L16.1427 13.4464L16.1405 13.4801L16.138 13.5139L16.135 13.5477L16.1317 13.5815L16.1281 13.6153L16.1241 13.6492L16.1197 13.683L16.115 13.7169L16.11 13.7507L16.1045 13.7845L16.0987 13.8184L16.0925 13.8522L16.086 13.886L16.0791 13.9198L16.0718 13.9535L16.0642 13.9872L16.0562 14.0209L16.0478 14.0546L16.0391 14.0882L16.03 14.1218L16.0205 14.1553L16.0107 14.1888L16.0005 14.2222L15.99 14.2556L15.9791 14.2889L15.9678 14.3221L15.9562 14.3553L15.9441 14.3884L15.9317 14.4214L15.919 14.4543L15.9059 14.4872L15.8924 14.5199L15.8786 14.5526L15.8645 14.5852L15.8499 14.6177L15.835 14.65L15.8197 14.6822L15.8041 14.7144L15.7882 14.7464L15.7718 14.7784L15.7551 14.8102L15.738 14.8418L15.7206 14.8733L15.7029 14.9047L15.6848 14.936L15.6663 14.9671L15.6475 14.9981L15.6283 15.0289L15.6089 15.0596L15.589 15.0901L15.5688 15.1205L15.5483 15.1506L15.5274 15.1807L15.5062 15.2105L15.4846 15.2402L15.4627 15.2697L15.4404 15.299L15.4178 15.3281L15.3949 15.3571L15.3717 15.3858L15.3481 15.4144L15.3242 15.4427L15.3 15.4709L15.2754 15.4988L15.2506 15.5265L15.2254 15.554L15.1998 15.5813L15.174 15.6084L15.1478 15.6353L15.1214 15.6619L15.0946 15.6882L15.0676 15.7144L15.0401 15.7403L15.0124 15.766L14.9844 15.7914L14.9561 15.8166L14.9275 15.8415L14.8986 15.8662L14.8694 15.8905L14.8399 15.9147L14.8102 15.9386L14.7801 15.9622L14.7498 15.9855L14.7192 16.0086L14.6882 16.0314L14.6571 16.0538L14.6256 16.076L14.5939 16.098L14.5619 16.1196L14.5297 16.141L14.4972 16.162L14.4644 16.1828L14.4313 16.2032L14.3981 16.2234L14.3645 16.2432L14.3308 16.2627L14.2967 16.2819L14.2624 16.3008L14.2279 16.3194L14.1932 16.3376L14.1582 16.3555L14.123 16.3731L14.0876 16.3904L14.0519 16.4073L14.016 16.4239L13.98 16.4401L13.9436 16.456L13.9072 16.4716L13.8704 16.4868L13.8335 16.5017L13.7964 16.5162L13.7591 16.5304L13.7215 16.5442L13.6838 16.5576L13.646 16.5707L13.6079 16.5834L13.5697 16.5958L13.5313 16.6078L13.4927 16.6194L13.4539 16.6307L13.415 16.6415L13.376 16.652L13.3368 16.6621L13.2974 16.6719L13.2578 16.6812L13.2182 16.6902L13.1784 16.6988L13.1384 16.707L13.0984 16.7148L13.0582 16.7222L13.0178 16.7293L12.9774 16.7359L12.9368 16.7422L12.8962 16.748L12.8554 16.7534L12.8145 16.7585L12.7735 16.7632L12.7325 16.7674L12.6913 16.7712L12.65 16.7746L12.6087 16.7777L12.5672 16.7802L12.5258 16.7825L12.4842 16.7843L12.4426 16.7856L12.4009 16.7866L12.3592 16.7871L12.3174 16.7873L12.2755 16.787L12.2336 16.7863L12.1917 16.7851L12.1498 16.7836L12.1078 16.7816L12.0657 16.7792L12.0236 16.7765L11.9816 16.7732L11.9395 16.7696L11.8974 16.7655L11.8554 16.761L11.8133 16.7561L11.7712 16.7507L11.7291 16.7449L11.687 16.7388L11.645 16.7321L11.603 16.7251L11.561 16.7176L11.519 16.7097L11.4771 16.7014L11.4352 16.6926L11.3934 16.6835L11.3516 16.6738L11.3099 16.6638L11.2681 16.6534L11.2265 16.6424L11.185 16.6311L11.1435 16.6194L11.1022 16.6072L11.0608 16.5946L11.0196 16.5816L10.9784 16.5682L10.9374 16.5543L10.8965 16.54L10.8556 16.5253L10.8149 16.5101L10.7743 16.4946L10.7338 16.4786L10.6934 16.4622L10.6531 16.4454L10.613 16.4281L10.5731 16.4105L10.5332 16.3924L10.4935 16.3739L10.4539 16.355L10.4146 16.3357L10.3753 16.3159L10.3363 16.2958L10.2974 16.2752L10.2587 16.2543L10.2201 16.2329L10.1818 16.2112L10.1435 16.189L10.1056 16.1664L10.0678 16.1434L10.0302 16.12L9.99275 16.0962L9.95555 16.0721L9.91857 16.0475L9.88181 16.0225L9.84532 15.9971L9.80899 15.9714L9.77288 15.9452L9.73704 15.9187L9.70142 15.8918L9.66608 15.8645L9.63095 15.8368L9.5961 15.8088L9.56146 15.7804L9.5271 15.7516L9.49301 15.7224L9.45919 15.6928L9.42564 15.6629L9.39237 15.6326L9.35937 15.602L9.32664 15.571L9.29424 15.5396L9.26206 15.508L9.23026 15.4759L9.19873 15.4435L9.16748 15.4107L9.13655 15.3776L9.10595 15.3442L9.07568 15.3104L9.04568 15.2763L9.01606 15.2418L8.98672 15.2071L8.9577 15.172L8.92906 15.1365L8.90075 15.1008L8.87277 15.0647L8.84512 15.0283L8.81784 14.9916L8.79095 14.9546L8.76439 14.9173L8.73815 14.8797L8.7123 14.8418L8.68682 14.8036L8.66173 14.7651L8.63702 14.7263L8.61264 14.6873L8.5887 14.6479L8.56508 14.6083L8.5419 14.5684L8.5191 14.5282L8.49668 14.4878L8.47464 14.4471L8.45304 14.4061L8.43183 14.3649L8.41099 14.3234L8.39059 14.2818L8.37063 14.2398L8.35104 14.1976L8.3319 14.1552L8.31319 14.1125L8.29486 14.0696L8.27697 14.0265L8.25952 13.9831L8.2425 13.9396L8.22592 13.8958L8.20983 13.8518L8.19412 13.8077L8.17884 13.7633L8.16401 13.7188L8.14966 13.674L8.13575 13.629L8.12228 13.5839L8.10924 13.5386L8.0967 13.4931L8.08464 13.4474L8.07297 13.4016L8.06184 13.3556L8.05115 13.3096L8.0409 13.2632L8.03113 13.2168L8.02186 13.1702L8.01302 13.1236L8.00468 13.0767L7.99683 13.0297L7.98946 12.9827L7.98253 12.9354L7.9761 12.8881L7.97021 12.8407L7.96475 12.7932L7.95979 12.7455L7.95532 12.6978L7.95133 12.6499L7.94784 12.602L7.94484 12.554L7.94233 12.506L7.94032 12.4579L7.93879 12.4097L7.93781 12.3614L7.93732 12.3131L7.93726 12.2647L7.93775 12.2163L7.93879 12.1679L7.94026 12.1194L7.94228 12.0708L7.94479 12.0223L7.94779 11.9737L7.95128 11.9251L7.95532 11.8765L7.95984 11.8279L7.96486 11.7793L7.97042 11.7307L7.97648 11.6821L7.98303 11.6336L7.99012 11.585L7.9977 11.5365L8.00583 11.488L8.01439 11.4395L8.0235 11.3911L8.03315 11.3427L8.0433 11.2944L8.05393 11.2461L8.06506 11.1979L8.07673 11.1498L8.0889 11.1017L8.10161 11.0537L8.11481 11.0058L8.1285 10.9579L8.14268 10.9102L8.15741 10.8625L8.17263 10.815L8.18833 10.7675L8.20459 10.7202L8.22133 10.673L8.23857 10.6259L8.2563 10.579L8.27457 10.5322L8.29333 10.4855L8.31259 10.4389L8.33233 10.3925L8.35257 10.3463L8.37335 10.3002L8.39457 10.2542L8.41633 10.2085L8.43853 10.1629L8.46128 10.1175L8.48446 10.0723L8.50819 10.0273L8.53235 9.98245L8.55706 9.93783L8.58221 9.89337L8.60784 9.84914L8.63397 9.80517L8.66059 9.76137L8.68764 9.71779L8.71524 9.67448L8.74328 9.63134L8.77175 9.58846L8.80072 9.54586L8.83017 9.50348L8.86006 9.46137L8.89044 9.41954L8.92126 9.37792L8.95252 9.33657L8.98426 9.29555L9.01644 9.25475L9.04912 9.21428L9.08223 9.17403L9.11572 9.13415L9.1497 9.0945L9.18412 9.05517L9.21897 9.01617L9.25426 8.97745L9.28999 8.9391L9.32615 8.90103L9.36275 8.86328L9.39973 8.82586L9.43715 8.78877L9.47501 8.75201L9.51324 8.71563L9.55192 8.67957L9.59097 8.64385L9.63041 8.6085L9.67028 8.57348L9.71059 8.5389L9.75123 8.50459L9.7923 8.47072L9.8337 8.43723L9.87553 8.40406L9.9177 8.37134L9.9603 8.33899L10.0032 8.30703L10.0465 8.27544L10.0902 8.2443L10.1342 8.21354L10.1786 8.18315L10.2234 8.15321L10.2685 8.1237L10.3139 8.09463L10.3597 8.06594L10.4058 8.03768L10.4523 8.00986L10.499 7.98248L10.5462 7.95554L10.5936 7.92903L10.6413 7.90295L10.6894 7.87737L10.7377 7.85223L10.7863 7.82752L10.8353 7.8033L10.8845 7.77952L10.934 7.75623L10.9838 7.73337L11.0339 7.71101L11.0843 7.68914L11.1349 7.6677L11.1858 7.64675L11.2369 7.62635L11.2884 7.60639L11.34 7.58692L11.3919 7.56794L11.444 7.5495L11.4965 7.5315L11.549 7.51405L11.6019 7.49708L11.6549 7.48061L11.7082 7.46468L11.7617 7.44924L11.8153 7.43435L11.8692 7.41995L11.9233 7.40605L11.9776 7.39268L12.032 7.37986L12.0866 7.36759L12.1414 7.35581L12.1964 7.34457L12.2515 7.33388L12.2791 7.32875ZM12.9565 11.2889L12.3278 11.4391L12.2909 8.32486L12.2613 8.33152L12.2167 8.34205L12.1721 8.35301L12.1279 8.36435L12.0837 8.37614L12.0398 8.38835L11.9959 8.40106L11.9524 8.41405L11.9088 8.42757L11.8658 8.44137L11.8226 8.45572L11.7798 8.47044L11.7371 8.48555L11.6946 8.50105L11.6525 8.51692L11.6105 8.53328L11.5686 8.54997L11.5271 8.56705L11.4856 8.58461L11.4446 8.60239L11.4036 8.62072L11.363 8.63932L11.3225 8.65841L11.2824 8.67777L11.2423 8.69757L11.2027 8.7177L11.1633 8.73821L11.1241 8.7591L11.0852 8.78032L11.0466 8.80192L11.0082 8.8239L10.9702 8.84615L10.9322 8.8689L10.8947 8.89186L10.8575 8.91521L10.8205 8.93888L10.7837 8.96294L10.7473 8.98732L10.7112 9.01203L10.6754 9.03701L10.6399 9.06232L10.6046 9.08801L10.5697 9.11403L10.5352 9.14032L10.5008 9.16694L10.4669 9.19377L10.4333 9.22099L10.3999 9.24854L10.3669 9.27641L10.3343 9.30445L10.3019 9.33286L10.2699 9.3615L10.2382 9.39046L10.2068 9.41975L10.1759 9.44926L10.1452 9.47899L10.1148 9.5091L10.0849 9.53937L10.0553 9.56997L10.026 9.60074L9.99701 9.63194L9.96848 9.66319L9.94028 9.69477L9.91241 9.72663L9.88497 9.75859L9.85781 9.79094L9.83113 9.82334L9.80468 9.85617L9.77872 9.88906L9.75303 9.92228L9.72777 9.95572L9.7029 9.98926L9.67835 10.023L9.65424 10.057L9.63046 10.0913L9.60706 10.1256L9.5841 10.1603L9.56152 10.195L9.53932 10.2299L9.51744 10.265L9.49606 10.3003L9.47495 10.3358L9.45433 10.3714L9.43404 10.4072L9.41413 10.4431L9.39472 10.4792L9.37562 10.5154L9.35697 10.5518L9.33864 10.5884L9.32081 10.6249L9.3033 10.6618L9.28622 10.6987L9.26959 10.7357L9.25328 10.7729L9.23741 10.8102L9.22197 10.8475L9.20692 10.885L9.1923 10.9226L9.17801 10.9603L9.16421 10.998L9.15079 11.0359L9.13775 11.0738L9.12515 11.1119L9.11293 11.1499L9.10115 11.1882L9.08975 11.2264L9.07884 11.2646L9.06826 11.303L9.05806 11.3415L9.04835 11.38L9.03903 11.4185L9.03008 11.457L9.02157 11.4956L9.0135 11.5343L9.00581 11.5729L8.9985 11.6116L8.99162 11.6504L8.98519 11.6891L8.97913 11.7278L8.97346 11.7666L8.96823 11.8053L8.96342 11.8441L8.95901 11.8828L8.95497 11.9216L8.95137 11.9604L8.94815 11.9991L8.94537 12.0378L8.94297 12.0766L8.94095 12.1152L8.93937 12.1538L8.93817 12.1924L8.93741 12.231L8.93697 12.2695L8.93703 12.3079L8.93741 12.3463L8.93823 12.3847L8.93943 12.423L8.94101 12.4613L8.94297 12.4994L8.94537 12.5375L8.94815 12.5755L8.95132 12.6135L8.95486 12.6514L8.95879 12.6892L8.9631 12.7268L8.96779 12.7645L8.97286 12.8019L8.97837 12.8394L8.98421 12.8766L8.99043 12.9138L8.99702 12.951L9.00401 12.9879L9.01137 13.0248L9.01906 13.0614L9.02719 13.0981L9.03564 13.1345L9.04448 13.1709L9.05364 13.207L9.06324 13.2432L9.07312 13.279L9.08337 13.3148L9.09401 13.3504L9.10497 13.3859L9.11632 13.4212L9.12799 13.4563L9.14004 13.4914L9.15243 13.5262L9.16513 13.5607L9.17817 13.5953L9.19159 13.6296L9.20533 13.6637L9.21941 13.6976L9.23375 13.7313L9.24853 13.7649L9.26359 13.7983L9.27897 13.8314L9.29468 13.8644L9.31066 13.8971L9.32708 13.9298L9.34366 13.9621L9.36062 13.9942L9.37792 14.0262L9.39553 14.0579L9.41342 14.0894L9.43159 14.1207L9.45008 14.1517L9.4689 14.1826L9.48793 14.2132L9.5073 14.2435L9.52699 14.2736L9.5469 14.3035L9.56713 14.3333L9.58759 14.3626L9.60837 14.3918L9.62942 14.4207L9.6507 14.4493L9.67235 14.4778L9.69417 14.506L9.71626 14.5338L9.73863 14.5615L9.76126 14.5889L9.78406 14.616L9.80724 14.6429L9.83059 14.6695L9.85415 14.6958L9.8781 14.7218L9.9021 14.7475L9.92642 14.7731L9.95097 14.7983L9.97568 14.8232L10.0007 14.8479L10.0259 14.8723L10.0513 14.8964L10.077 14.9202L10.1028 14.9437L10.1289 14.9669L10.1551 14.9898L10.1816 15.0125L10.2082 15.0348L10.235 15.0569L10.2621 15.0786L10.2894 15.1001L10.3167 15.1212L10.3443 15.142L10.3721 15.1626L10.4 15.1828L10.4281 15.2027L10.4563 15.2224L10.4848 15.2417L10.5133 15.2606L10.542 15.2793L10.5709 15.2977L10.6 15.3158L10.6291 15.3335L10.6584 15.3509L10.6879 15.368L10.7174 15.3848L10.7471 15.4013L10.7771 15.4175L10.807 15.4333L10.8371 15.4488L10.8672 15.4639L10.8976 15.4788L10.9279 15.4933L10.9585 15.5076L10.9891 15.5215L11.0198 15.535L11.0507 15.5483L11.0816 15.5612L11.1125 15.5738L11.1436 15.5861L11.1748 15.598L11.2061 15.6096L11.2373 15.6209L11.2687 15.6318L11.3001 15.6424L11.3316 15.6527L11.3632 15.6627L11.3948 15.6724L11.4264 15.6816L11.4581 15.6906L11.4899 15.6992L11.5217 15.7076L11.5535 15.7156L11.5854 15.7232L11.6172 15.7306L11.6491 15.7375L11.6811 15.7442L11.7131 15.7506L11.745 15.7566L11.777 15.7623L11.809 15.7677L11.841 15.7727L11.873 15.7775L11.905 15.7818L11.937 15.7859L11.9689 15.7896L12.001 15.7931L12.0329 15.7961L12.0649 15.7989L12.0968 15.8014L12.1286 15.8035L12.1606 15.8053L12.1924 15.8068L12.2241 15.808L12.256 15.8088L12.2876 15.8093L12.3192 15.8095L12.3509 15.8094L12.3824 15.809L12.414 15.8083L12.4454 15.8072L12.4768 15.8059L12.5081 15.8042L12.5394 15.8023L12.5705 15.8L12.6017 15.7974L12.6326 15.7945L12.6636 15.7914L12.6945 15.7878L12.7252 15.7841L12.756 15.78L12.7865 15.7756L12.817 15.7709L12.8474 15.7659L12.8777 15.7606L12.9079 15.755L12.938 15.7492L12.968 15.743L12.9978 15.7366L13.0274 15.7298L13.0571 15.7228L13.0866 15.7155L13.116 15.708L13.1452 15.7001L13.1743 15.692L13.2034 15.6835L13.2322 15.6749L13.2607 15.6659L13.2894 15.6566L13.3178 15.6472L13.346 15.6374L13.3741 15.6274L13.4021 15.6171L13.4299 15.6065L13.4576 15.5957L13.485 15.5846L13.5124 15.5734L13.5395 15.5617L13.5666 15.5499L13.5933 15.5378L13.62 15.5255L13.6465 15.513L13.6727 15.5002L13.6989 15.4871L13.7248 15.4739L13.7506 15.4603L13.7761 15.4465L13.8015 15.4326L13.8266 15.4184L13.8517 15.4039L13.8765 15.3893L13.901 15.3744L13.9254 15.3593L13.9496 15.3439L13.9736 15.3284L13.9975 15.3127L14.021 15.2968L14.0444 15.2806L14.0676 15.2642L14.0905 15.2477L14.1133 15.2309L14.1358 15.2139L14.1581 15.1967L14.1802 15.1794L14.2021 15.1618L14.2237 15.1441L14.2452 15.1262L14.2663 15.1081L14.2873 15.0899L14.3081 15.0714L14.3286 15.0528L14.3489 15.034L14.3688 15.0151L14.3887 14.9959L14.4083 14.9766L14.4276 14.9572L14.4467 14.9376L14.4655 14.9178L14.4841 14.898L14.5026 14.8778L14.5206 14.8577L14.5386 14.8373L14.5562 14.8168L14.5735 14.7962L14.5908 14.7754L14.6076 14.7546L14.6243 14.7335L14.6407 14.7124L14.6568 14.6911L14.6727 14.6697L14.6883 14.6483L14.7037 14.6266L14.7188 14.6048L14.7337 14.583L14.7483 14.561L14.7627 14.539L14.7767 14.5168L14.7906 14.4946L14.8042 14.4722L14.8175 14.4497L14.8306 14.4272L14.8433 14.4046L14.8559 14.3819L14.8681 14.359L14.8801 14.3362L14.8919 14.3132L14.9034 14.2902L14.9146 14.2672L14.9256 14.2439L14.9363 14.2207L14.9467 14.1974L14.9568 14.1742L14.9668 14.1507L14.9764 14.1273L14.9858 14.1037L14.9948 14.0803L15.0037 14.0565L15.0122 14.0331L15.0206 14.0093L15.0287 13.9855L15.0364 13.9619L15.0439 13.9381L15.0512 13.9144L15.0582 13.8904L15.0649 13.8667L15.0714 13.8426L15.0776 13.819L15.0835 13.795L15.0892 13.771L15.0946 13.7471L15.0997 13.7233L15.1046 13.6992L15.1093 13.6754L15.1136 13.6513L15.1177 13.6276L15.1216 13.6037L15.1252 13.5797L15.1285 13.5558L15.1316 13.5319L15.1344 13.5081L15.137 13.4844L15.1393 13.4604L15.1414 13.4367L15.1432 13.4129L15.1447 13.3892L15.146 13.3655L15.147 13.3419L15.1478 13.3184L15.1483 13.2947L15.1487 13.2711L15.1487 13.2477L15.1485 13.2243L15.1481 13.201L15.1474 13.1777L15.1464 13.1543L15.1452 13.1313L15.1438 13.1078L15.1422 13.085L15.1403 13.062L15.1381 13.0389L15.1357 13.016L15.1332 12.9934L15.1303 12.9704L15.1272 12.948L15.1239 12.9253L15.1204 12.903L15.1166 12.8805L15.1126 12.8581L15.1084 12.836L15.104 12.8139L15.0993 12.7918L15.0944 12.7699L15.0893 12.748L15.084 12.7263L15.0785 12.7048L15.0726 12.683L15.0667 12.6618L15.0605 12.6403L15.0541 12.6192L15.0475 12.5981L15.0407 12.5771L15.0337 12.5562L15.0264 12.5354L15.0191 12.5149L15.0114 12.4944L15.0036 12.4739L14.9956 12.4537L14.9873 12.4334L14.979 12.4136L14.9703 12.3936L14.9616 12.3739L14.9526 12.3544L14.9434 12.3349L14.9341 12.3156L14.9245 12.2964L14.9148 12.2773L14.905 12.2584L14.8949 12.2396L14.8847 12.221L14.8742 12.2026L14.8636 12.1842L14.8529 12.1661L14.842 12.1481L14.8309 12.1301L14.8196 12.1125L14.8082 12.0949L14.7967 12.0775L14.785 12.0602L14.7731 12.0432L14.7611 12.0263L14.7489 12.0095L14.7366 11.9929L14.7241 11.9765L14.7115 11.9603L14.6987 11.9441L14.6858 11.9282L14.6728 11.9125L14.6597 11.8969L14.6464 11.8814L14.633 11.8662L14.6194 11.8512L14.6057 11.8363L14.5919 11.8215L14.578 11.807L14.5639 11.7926L14.5498 11.7784L14.5355 11.7644L14.5211 11.7506L14.5067 11.737L14.4919 11.7235L14.4773 11.7102L14.4625 11.6971L14.4476 11.6842L14.4325 11.6714L14.4174 11.659L14.4022 11.6466L14.3869 11.6344L14.3716 11.6224L14.3561 11.6106L14.3405 11.599L14.3249 11.5876L14.3091 11.5763L14.2933 11.5653L14.2775 11.5544L14.2615 11.5438L14.2455 11.5333L14.2294 11.523L14.2133 11.5129L14.197 11.503L14.1807 11.4932L14.1644 11.4838L14.148 11.4744L14.1314 11.4653L14.115 11.4563L14.0984 11.4475L14.0818 11.439L14.0652 11.4306L14.0484 11.4224L14.0317 11.4144L14.0149 11.4067L13.9981 11.399L13.9813 11.3916L13.9643 11.3844L13.9475 11.3774L13.9305 11.3706L13.9135 11.3639L13.8965 11.3575L13.8795 11.3512L13.8625 11.3452L13.8454 11.3393L13.8283 11.3335L13.8113 11.3281L13.7942 11.3227L13.7771 11.3176L13.76 11.3127L13.7428 11.308L13.7258 11.3034L13.7087 11.2991L13.6915 11.2949L13.6744 11.2909L13.6573 11.2871L13.6402 11.2835L13.6231 11.28L13.6061 11.2768L13.5891 11.2737L13.572 11.2708L13.5551 11.2681L13.5379 11.2656L13.5211 11.2633L13.5041 11.2611L13.4872 11.2591L13.4704 11.2573L13.4534 11.2558L13.4366 11.2543L13.4198 11.253L13.4031 11.2519L13.3864 11.251L13.3697 11.2503L13.3531 11.2498L13.3365 11.2493L13.32 11.2491L13.3034 11.249L13.287 11.2492L13.2706 11.2495L13.2543 11.2499L13.238 11.2506L13.2218 11.2513L13.2056 11.2523L13.1896 11.2534L13.1735 11.2547L13.1575 11.2561L13.1417 11.2577L13.1257 11.2595L13.11 11.2614L13.0943 11.2634L13.0787 11.2657L13.0631 11.2681L13.0477 11.2706L13.0322 11.2733L13.017 11.2761L13.0017 11.2791L12.9866 11.2822L12.9715 11.2855L12.9565 11.2889Z" fill="#FEFAEE"/>
</svg>
