<svg width="102" height="24" viewBox="0 0 102 24" fill="none" xmlns="http://www.w3.org/2000/svg">
<g clip-path="url(#clip0_1_106)">
<path fill-rule="evenodd" clip-rule="evenodd" d="M6.42709 1.5V24H0.418213V1.5H6.42709Z" fill="#FEFAEE"/>
<path fill-rule="evenodd" clip-rule="evenodd" d="M9.43152 1.5H22.2004C26.3487 1.5 29.7115 4.85786 29.7115 9C29.7115 13.1422 26.3487 16.5 22.2004 16.5H15.4404V24H9.43152V1.5ZM15.4404 10.5H22.2004C23.0301 10.5 23.7026 9.82842 23.7026 9C23.7026 8.17158 23.0301 7.5 22.2004 7.5H15.4404V10.5Z" fill="#FEFAEE"/>
<path fill-rule="evenodd" clip-rule="evenodd" d="M52.2448 1.5V13.125C52.2448 15.8174 54.4306 18 57.127 18C59.8234 18 62.0094 15.8174 62.0094 13.125V1.5H68.0184V13.125C68.0184 19.1311 63.1422 24 57.127 24C51.112 24 46.236 19.1311 46.236 13.125V1.5H52.2448Z" fill="#FEFAEE"/>
<path fill-rule="evenodd" clip-rule="evenodd" d="M31.9649 12C31.9649 6.201 36.6729 1.5 42.4805 1.5H43.9827V7.5H42.4805C39.9915 7.5 37.9738 9.51474 37.9738 12V12.75C37.9738 18.9632 32.9296 24 26.7071 24H25.9561V18H26.7071C29.611 18 31.9649 15.6495 31.9649 12.75V12Z" fill="#FEFAEE"/>
<path d="M101.818 2.25C101.818 3.49264 100.81 4.5 99.5646 4.5C98.3202 4.5 97.3116 3.49264 97.3116 2.25C97.3116 1.00736 98.3202 0 99.5646 0C100.81 0 101.818 1.00736 101.818 2.25Z" fill="#FEFAEE"/>
<path d="M74.4702 24L77.3376 12.0109L79.4694 19.2236C80.7402 23.5255 86.8428 23.5255 88.1142 19.2236L90.2454 12.0109L93.1128 24H99.2904L94.782 5.14772C93.7098 0.664492 87.3828 0.498497 86.076 4.91937L83.7918 12.65L81.507 4.91938C80.2008 0.498523 73.8732 0.664468 72.801 5.14772L68.2926 24H74.4702Z" fill="#FEFAEE"/>
</g>
<defs>
<clipPath id="clip0_1_106">
<rect width="101.4" height="24" fill="white" transform="translate(0.418213)"/>
</clipPath>
</defs>
</svg>
