<svg width="94" height="24" viewBox="0 0 94 24" fill="none" xmlns="http://www.w3.org/2000/svg">
<path d="M28.2344 7.55251H30.4844V16.65H28.2344V7.55251ZM31.3769 13.215C31.3769 10.965 32.7569 9.62252 34.8869 9.62252C37.0169 9.62252 38.3969 10.965 38.3969 13.215C38.3969 15.465 37.0469 16.815 34.8869 16.815C32.7269 16.815 31.3769 15.5025 31.3769 13.215ZM36.1394 13.215C36.1394 11.9775 35.6519 11.25 34.8869 11.25C34.1219 11.25 33.6419 12 33.6419 13.215C33.6419 14.43 34.1144 15.165 34.8869 15.165C35.6594 15.165 36.1394 14.475 36.1394 13.2225V13.215ZM39.2444 17.0925H41.4044C41.5072 17.3209 41.681 17.51 41.8999 17.6316C42.1188 17.7532 42.3712 17.8009 42.6194 17.7675C43.4744 17.7675 43.9244 17.3025 43.9244 16.6275V15.3675H43.8794C43.7001 15.7537 43.4092 16.0772 43.0443 16.2965C42.6793 16.5158 42.257 16.6206 41.8319 16.5975C40.1894 16.5975 39.1019 15.345 39.1019 13.1925C39.1019 11.04 40.1369 9.68252 41.8619 9.68252C42.3003 9.66534 42.7335 9.78257 43.1035 10.0184C43.4735 10.2544 43.7625 10.5977 43.9319 11.0025V9.75002H46.1819V16.575C46.1819 18.2175 44.7344 19.2375 42.5969 19.2375C40.6094 19.2375 39.3719 18.345 39.2444 17.1V17.0925ZM43.9319 13.2075C43.9319 12.1125 43.4294 11.4225 42.6344 11.4225C41.8394 11.4225 41.3519 12.105 41.3519 13.2075C41.3519 14.31 41.8319 14.9325 42.6344 14.9325C43.4369 14.9325 43.9319 14.325 43.9319 13.215V13.2075ZM47.0294 13.2075C47.0294 10.9575 48.4094 9.61502 50.5394 9.61502C52.6694 9.61502 54.0569 10.9575 54.0569 13.2075C54.0569 15.4575 52.7069 16.8075 50.5394 16.8075C48.3719 16.8075 47.0294 15.5025 47.0294 13.215V13.2075ZM51.7919 13.2075C51.7919 11.97 51.3044 11.2425 50.5394 11.2425C49.7744 11.2425 49.3319 12 49.3319 13.2225C49.3319 14.445 49.8044 15.1725 50.5694 15.1725C51.3344 15.1725 51.7919 14.475 51.7919 13.2225V13.2075ZM54.9119 8.11501C54.906 7.88784 54.9677 7.66404 55.0891 7.47197C55.2106 7.2799 55.3863 7.12822 55.5941 7.03615C55.8018 6.94408 56.0322 6.91577 56.2561 6.9548C56.48 6.99385 56.6872 7.09848 56.8515 7.25543C57.0159 7.41239 57.1299 7.61462 57.1792 7.83647C57.2285 8.05832 57.2108 8.28976 57.1283 8.50156C57.0459 8.71329 56.9024 8.89584 56.7161 9.02597C56.5298 9.15609 56.3091 9.22802 56.0819 9.23252C55.9313 9.24287 55.7802 9.22194 55.638 9.17109C55.4958 9.12024 55.3658 9.04059 55.2559 8.93702C55.146 8.83352 55.0587 8.70834 54.9996 8.56944C54.9403 8.43062 54.9105 8.28099 54.9119 8.13002V8.11501ZM54.9119 9.76502H57.1619V16.65H54.9119V9.76502ZM65.3294 13.2075C65.3294 15.4575 64.3319 16.74 62.6219 16.74C62.1834 16.7681 61.7468 16.661 61.3712 16.433C60.9956 16.2049 60.6992 15.867 60.5219 15.465H60.4769V18.855H58.2269V9.75002H60.4769V10.98H60.5219C60.6909 10.5713 60.9818 10.2247 61.3548 9.98717C61.7279 9.74964 62.165 9.63279 62.6069 9.65252C64.3319 9.68252 65.3594 10.9725 65.3594 13.2225L65.3294 13.2075ZM63.0794 13.2075C63.0794 12.1125 62.5769 11.415 61.7894 11.415C61.0019 11.415 60.4994 12.12 60.4919 13.2075C60.4844 14.295 61.0019 14.9925 61.7894 14.9925C62.5769 14.9925 63.0794 14.31 63.0794 13.2225V13.2075ZM69.1919 9.60752C71.0594 9.60752 72.1919 10.4925 72.2444 11.91H70.1969C70.1969 11.4225 69.7919 11.115 69.1694 11.115C68.5469 11.115 68.2694 11.355 68.2694 11.7075C68.2694 12.06 68.5169 12.1725 69.0194 12.2775L70.4594 12.57C71.8319 12.8625 72.4169 13.4175 72.4169 14.46C72.4169 15.885 71.1194 16.8 69.2069 16.8C67.2944 16.8 66.0419 15.885 65.9444 14.4825H68.1119C68.1794 14.9925 68.5844 15.2925 69.2444 15.2925C69.9044 15.2925 70.2044 15.075 70.2044 14.715C70.2044 14.355 69.9944 14.28 69.4544 14.1675L68.1569 13.89C66.8144 13.6125 66.1094 12.9 66.1094 11.85C66.1244 10.5 67.3319 9.62252 69.1919 9.62252V9.60752ZM79.9244 16.635H77.7569V15.3525H77.7119C77.5926 15.7831 77.3301 16.16 76.9671 16.4206C76.6041 16.6811 76.1631 16.8098 75.7169 16.785C75.375 16.8044 75.033 16.7503 74.7139 16.6262C74.3948 16.502 74.106 16.3109 73.8672 16.0656C73.6283 15.8204 73.4447 15.5266 73.3292 15.2043C73.2135 14.882 73.1685 14.5387 73.1969 14.1975V9.75002H75.4469V13.68C75.4469 14.4975 75.8669 14.9325 76.5644 14.9325C76.7279 14.9328 76.8899 14.8982 77.0391 14.831C77.1876 14.7637 77.3211 14.6653 77.4291 14.5424C77.5364 14.4195 77.6174 14.275 77.6646 14.1185C77.7119 13.962 77.7261 13.7972 77.7044 13.635V9.75002H79.9544L79.9244 16.635ZM81.0119 9.75002H83.1869V11.0775H83.2319C83.3511 10.6526 83.6084 10.2793 83.9624 10.016C84.3164 9.75279 84.7484 9.61434 85.1894 9.62252C85.6386 9.58659 86.0841 9.72092 86.4389 9.99887C86.7929 10.2768 87.0299 10.6779 87.1019 11.1225H87.1469C87.2826 10.6732 87.5646 10.282 87.9479 10.0104C88.3304 9.73884 88.7931 9.60234 89.2619 9.62252C89.5679 9.61224 89.8724 9.66647 90.1559 9.78167C90.4401 9.89679 90.6959 10.0704 90.9081 10.2911C91.1204 10.5118 91.2839 10.7747 91.3881 11.0626C91.4916 11.3505 91.5344 11.6572 91.5119 11.9625V16.65H89.2619V12.5625C89.2619 11.8125 88.9244 11.4675 88.2944 11.4675C88.1541 11.4663 88.0146 11.4953 87.8864 11.5524C87.7581 11.6096 87.6434 11.6936 87.5504 11.7988C87.4574 11.904 87.3876 12.0279 87.3464 12.1622C87.3051 12.2966 87.2939 12.4382 87.3119 12.5775V16.65H85.1744V12.5325C85.1744 11.8425 84.8369 11.4675 84.2219 11.4675C84.0801 11.4676 83.9391 11.4977 83.8101 11.556C83.6804 11.6144 83.5641 11.6995 83.4704 11.8058C83.3759 11.912 83.3054 12.0371 83.2626 12.1728C83.2206 12.3084 83.2071 12.4514 83.2244 12.5925V16.65H80.9744L81.0119 9.75002Z" fill="#FEFAEE"/>
<path d="M21.9417 7.96498C21.5601 7.09225 21.0549 6.27893 20.4417 5.54998C19.5354 4.44024 18.4042 3.53502 17.1228 2.89393C15.8413 2.25285 14.4386 1.89041 13.007 1.83048C11.5754 1.77054 10.1473 2.01447 8.81674 2.54622C7.48621 3.07797 6.28336 3.88547 5.28739 4.91558C4.2914 5.94568 3.52486 7.17504 3.03823 8.52275C2.55159 9.87043 2.35588 11.3059 2.46398 12.7347C2.57209 14.1635 2.98156 15.5532 3.66544 16.8123C4.34932 18.0715 5.2921 19.1715 6.43174 20.04C7.16299 20.6084 7.97101 21.0705 8.83174 21.4125C10.0385 21.907 11.3301 22.1617 12.6342 22.1625C15.3263 22.1566 17.9061 21.0835 19.8084 19.1785C21.7105 17.2735 22.7798 14.692 22.7817 12C22.7837 10.6114 22.4977 9.23743 21.9417 7.96498ZM12.6267 3.89247C13.7979 3.89235 14.955 4.14833 16.0167 4.64247C15.7578 4.75435 15.4856 4.83249 15.2067 4.87498C14.2892 5.0078 13.4392 5.43378 12.7836 6.08936C12.1281 6.74492 11.7021 7.59493 11.5692 8.51248C11.511 9.02705 11.2769 9.50578 10.9066 9.86788C10.5363 10.23 10.0525 10.4532 9.53674 10.5C8.61919 10.6328 7.76919 11.0588 7.11362 11.7144C6.45805 12.37 6.03206 13.2199 5.89924 14.1375C5.85427 14.6268 5.64551 15.0866 5.30674 15.4425C4.72223 14.2075 4.45966 12.8446 4.54345 11.4808C4.62724 10.117 5.05467 8.7965 5.78597 7.64225C6.51727 6.48807 7.52867 5.53761 8.72606 4.87936C9.92344 4.22111 11.2679 3.87646 12.6342 3.87747L12.6267 3.89247ZM6.42424 17.25C6.51424 17.1675 6.60424 17.0925 6.69424 17.0025C7.36148 16.3556 7.78978 15.5017 7.90924 14.58C7.95768 14.0619 8.18899 13.578 8.56174 13.215C8.92046 12.8416 9.40324 12.6122 9.91924 12.57C10.8368 12.4372 11.6868 12.0112 12.3423 11.3556C12.9979 10.7 13.4239 9.85003 13.5567 8.93248C13.5892 8.3906 13.8217 7.88008 14.2092 7.49998C14.5768 7.13387 15.0642 6.9128 15.5817 6.87747C16.4247 6.7615 17.2108 6.38676 17.8317 5.80498C18.5388 6.39153 19.1377 7.09715 19.6017 7.88998C19.5732 7.92846 19.5405 7.9637 19.5042 7.99498C19.1463 8.37163 18.6641 8.60608 18.1467 8.65498C17.2282 8.78548 16.377 9.21073 15.7209 9.86668C15.065 10.5227 14.6397 11.374 14.5092 12.2925C14.4564 12.8088 14.2266 13.291 13.859 13.6573C13.4913 14.0236 13.0083 14.2516 12.4917 14.3025C11.5715 14.4343 10.7184 14.8594 10.059 15.5147C9.39964 16.1701 8.96921 17.0206 8.83174 17.94C8.79139 18.3065 8.66546 18.6585 8.46424 18.9675C7.69474 18.5106 7.00556 17.9304 6.42424 17.25ZM12.6267 20.145C11.8657 20.1458 11.1083 20.0398 10.3767 19.83C10.627 19.3635 10.7897 18.8551 10.8567 18.33C10.9093 17.8148 11.138 17.3335 11.5041 16.9674C11.8703 16.6012 12.3516 16.3726 12.8667 16.32C13.7856 16.1887 14.6373 15.7633 15.2944 15.1076C15.9514 14.452 16.3785 13.6011 16.5117 12.6825C16.5643 12.1673 16.793 11.686 17.1591 11.3199C17.5253 10.9537 18.0066 10.7251 18.5217 10.6725C19.2132 10.5826 19.8723 10.3251 20.4417 9.92248C20.7579 11.1209 20.7954 12.3758 20.5512 13.591C20.3071 14.8061 19.7878 15.9493 19.0333 16.9326C18.2788 17.9158 17.3091 18.7133 16.1985 19.2637C15.088 19.814 13.8662 20.1027 12.6267 20.1075V20.145Z" fill="#FEFAEE"/>
</svg>
