<svg width="193" height="24" viewBox="0 0 193 24" fill="none" xmlns="http://www.w3.org/2000/svg">
<path d="M96.194 20.683H89.7267V3.39287H96.194V20.683ZM90.3582 20.0514H95.5625V4.02445H90.3582V20.0514ZM105.193 20.683H98.8555V3.39287H112.096C113.993 3.23927 115.882 3.77178 117.419 4.8935C118.081 5.49895 118.594 6.24911 118.918 7.08545C119.242 7.9218 119.368 8.82171 119.287 9.71498C119.382 11.2585 118.89 12.7809 117.912 13.9781C116.753 15.307 114.826 15.9916 112.183 16.0156C111.517 16.0333 106.529 16.0156 105.197 16.0156L105.193 20.683ZM99.4833 20.0514H104.561V15.3777H104.878C104.943 15.3777 111.419 15.3979 112.168 15.3777C114.63 15.3562 116.4 14.7461 117.434 13.555C118.305 12.4718 118.738 11.1009 118.647 9.71371C118.724 8.91334 118.617 8.10583 118.332 7.35381C118.047 6.60179 117.593 5.92547 117.005 5.37729C115.579 4.35426 113.835 3.87405 112.087 4.02319H99.4871L99.4833 20.0514ZM110.754 12.1314H104.518V7.42487H110.796C111.241 7.36338 111.695 7.41532 112.114 7.57586C112.534 7.7364 112.906 8.00034 113.196 8.34319C113.46 8.78143 113.584 9.28927 113.552 9.79961C113.576 10.2734 113.474 10.745 113.256 11.1663C112.956 11.5275 112.569 11.8054 112.131 11.9736C111.693 12.1417 111.219 12.1943 110.754 12.1263V12.1314ZM105.15 11.4998H110.754C111.79 11.4998 112.432 11.2838 112.716 10.8392C112.873 10.516 112.944 10.158 112.922 9.79961C112.95 9.42326 112.868 9.04694 112.687 8.71582L112.68 8.70445C112.379 8.26235 111.781 8.05645 110.796 8.05645H105.15V11.4998ZM130.813 20.9381C125.142 20.9381 121.757 19.5297 120.467 16.6333C120.256 16.0738 120.113 15.4911 120.04 14.8977L119.984 14.5339H126.732L126.776 14.7992C126.828 15.0685 126.943 15.322 127.11 15.5394C127.376 15.8615 128.266 16.4021 131.216 16.4021C134.763 16.4021 134.763 15.7794 134.763 15.4447C134.763 14.88 134.353 14.6868 131.46 14.3786L130.911 14.3268C129.822 14.2245 128.445 14.0943 127.816 14.04C122.511 13.56 120.142 11.9116 120.142 8.69687C120.142 5.32045 124.173 3.13898 130.412 3.13898C135.501 3.13898 138.78 4.48045 140.156 7.12929C140.482 7.74544 140.701 8.41265 140.804 9.10235L140.848 9.45729H134.093L134.065 9.17182C134.038 8.94872 133.944 8.73943 133.792 8.57308C133.539 8.23456 132.741 7.67498 130.263 7.67498C127.22 7.67498 126.8 8.06403 126.8 8.4834C126.8 9.04298 127.762 9.24129 130.842 9.57098C132.127 9.67582 134.192 9.88803 134.9 9.97393C139.347 10.4565 141.332 12.0645 141.332 15.1895C141.333 17.8106 139.508 20.9381 130.813 20.9381ZM120.722 15.1655C120.785 15.5821 120.894 15.9903 121.047 16.3832C122.221 19.0219 125.417 20.3066 130.813 20.3066C135.325 20.3066 140.705 19.4223 140.705 15.1895C140.705 12.4194 138.949 11.0476 134.833 10.6017C134.125 10.5158 132.073 10.3049 130.791 10.1988C127.506 9.84256 126.171 9.65308 126.171 8.4834C126.171 7.27329 127.61 7.0434 130.265 7.0434C132.363 7.0434 133.719 7.42235 134.293 8.18656C134.45 8.37483 134.569 8.59197 134.642 8.82571H140.117C140.007 8.33719 139.832 7.86532 139.599 7.42235C138.336 4.99835 135.25 3.77056 130.414 3.77056C124.56 3.77056 120.776 5.70445 120.776 8.69687C120.776 11.5516 122.9 12.9613 127.874 13.411C128.506 13.4653 129.881 13.5954 130.973 13.699L131.526 13.7508C134.213 14.0337 135.397 14.2106 135.397 15.4447C135.397 16.7735 133.865 17.0337 131.219 17.0337C128.771 17.0337 127.225 16.6661 126.627 15.9423C126.443 15.7116 126.304 15.4479 126.218 15.1655H120.722ZM153.332 20.9167C146.738 20.9167 143.1 18.2501 143.1 13.4072V3.39287H149.482V13.4072C149.482 15.0682 150.968 16.0207 153.559 16.0207C156.035 16.0207 157.572 15.0266 157.572 13.4287V3.39287H163.888V13.9377C163.894 18.3727 160.043 20.9167 153.328 20.9167H153.332ZM143.732 4.02445V13.4072C143.732 19.392 149.742 20.2851 153.332 20.2851C157.043 20.2851 163.266 19.4602 163.266 13.9377V4.02445H158.214V13.4287C158.214 15.3866 156.39 16.6522 153.569 16.6522C150.621 16.6522 148.86 15.4396 148.86 13.4072V4.02445H143.732ZM190.652 20.683H184.629V12.8767L181.213 20.683H175.96L172.58 12.8918V20.683H166.536V3.39287H174.486L178.616 12.9259L182.946 3.39287H190.659L190.652 20.683ZM185.261 20.0514H190.02V4.02445H183.348L178.596 14.4821L174.066 4.02445H167.162V20.0514H171.943V9.85266L176.364 20.0552H180.785L185.253 9.86782L185.261 20.0514ZM8.22898 3.70866H2.47656V20.3672H18.3721V15.9322H8.22898V3.70866ZM29.9831 3.32971C22.6404 3.32971 18.7789 6.80971 18.7789 11.9192C18.7789 17.6918 22.8324 20.6198 29.9831 20.6198C37.8551 20.6198 41.1658 17.2245 41.1658 11.9192C41.1658 6.53182 37.4307 3.32719 29.9831 3.32719V3.32971ZM29.9616 7.65856C30.4614 7.65621 30.961 7.68531 31.4572 7.74571L25.0265 14.1765C24.7222 13.4882 24.5737 12.741 24.5919 11.9887C24.5919 9.37519 25.9081 7.65603 29.9616 7.65603V7.65856ZM29.9831 16.3592C29.5014 16.3613 29.0202 16.3343 28.5418 16.2783L34.9839 9.83624C35.2769 10.5132 35.4171 11.2463 35.3945 11.9836C35.3945 14.5263 34.1818 16.3567 29.9831 16.3567V16.3592ZM52.5633 14.0855H58.4837C58.3966 14.4964 58.2149 14.8813 57.9532 15.2097C56.7258 16.2096 55.1593 16.6962 53.5814 16.5676C52.7871 16.6526 51.984 16.5658 51.2262 16.3132C50.4685 16.0607 49.7737 15.6482 49.1894 15.1036C48.5908 14.2256 48.3065 13.1711 48.3822 12.1112C48.2854 11.0005 48.5946 9.89248 49.2526 8.99245C50.0799 8.05771 51.4808 7.65477 53.5397 7.65477C54.8497 7.5463 56.1581 7.88274 57.2534 8.60971C57.5986 8.88392 57.8567 9.25255 57.9961 9.67077H63.4871C63.4472 8.98168 63.2814 8.30571 62.9982 7.67624C61.6833 5.00214 58.6265 3.41056 53.4286 3.41056C48.9077 3.41056 45.8736 4.78992 44.1974 6.87035C43.0904 8.3727 42.5221 10.2044 42.5844 12.0695C42.5127 13.9769 43.0664 15.8553 44.1608 17.419C45.8168 19.5663 48.7662 20.6223 52.3107 20.6223C54.6671 20.7867 57.0075 20.1267 58.9309 18.7554L59.0799 20.3672H63.6412V10.4994H52.5633V14.0855ZM76.5873 3.32592C69.2458 3.32592 65.3831 6.80592 65.3831 11.9154C65.3831 17.688 69.4353 20.616 76.5873 20.616C84.4606 20.616 87.7713 17.2207 87.7713 11.9154C87.7713 6.53182 84.0361 3.32719 76.5873 3.32719V3.32592ZM76.5671 7.65477C77.0538 7.65333 77.5401 7.68117 78.0235 7.73814L71.618 14.1474C71.3232 13.4667 71.1797 12.7303 71.1974 11.9887C71.1924 9.37519 72.5136 7.65477 76.5671 7.65477ZM76.5873 16.3554C76.0929 16.3575 75.5989 16.3287 75.1081 16.2695L81.5717 9.80466C81.8758 10.4906 82.0213 11.2362 81.9974 11.9861C81.9999 14.5263 80.7924 16.3567 76.5873 16.3567V16.3554Z" fill="#FEFAEE"/>
</svg>
